<svg height="480pt" viewBox="-4 0 480 480" width="480pt" xmlns="http://www.w3.org/2000/svg"><path d="m232 112c30.929688 0 56-25.070312 56-56s-25.070312-56-56-56-56 25.070312-56 56c.035156 30.914062 25.085938 55.964844 56 56zm0-96c22.089844 0 40 17.910156 40 40s-17.910156 40-40 40-40-17.910156-40-40c.027344-22.082031 17.917969-39.972656 40-40zm0 0"/><path d="m360 192h76c14.066406.050781 26.867188-8.128906 32.734375-20.914062 5.867187-12.785157 3.722656-27.820313-5.488281-38.453126.496094-2.851562.746094-5.738281.753906-8.632812 0-28.71875-23.28125-52-52-52s-52 23.28125-52 52c0 1.335938.054688 2.664062.160156 4h-.160156c-17.671875 0-32 14.328125-32 32s14.328125 32 32 32zm0-48c2.425781.019531 4.816406.601562 6.984375 1.695312 2.914063 1.429688 6.402344.953126 8.828125-1.199218 2.429688-2.152344 3.316406-5.5625 2.242188-8.625-4.777344-13.523438-1.070313-28.59375 9.4375-38.359375 10.503906-9.765625 25.804687-12.363281 38.945312-6.609375 13.136719 5.75 21.609375 18.753906 21.5625 33.097656-.015625 3.078125-.425781 6.144531-1.214844 9.121094-.765625 2.90625.160156 5.996094 2.398438 8 4.324218 3.734375 6.808594 9.164062 6.816406 14.878906 0 11.046875-8.953125 20-20 20h-76c-8.835938 0-16-7.164062-16-16s7.164062-16 16-16zm0 0"/><path d="m48 278.792969v56.128906l-34.878906-29.066406-10.242188 12.289062 45.121094 37.597657v32.945312l-16 16v75.3125h400v-75.3125l-188.6875-188.6875 34.34375-34.34375-11.3125-11.3125-34.34375 34.34375-34.34375-34.34375-11.3125 11.3125 34.34375 34.34375-156.6875 156.6875v-92.886719c31.488281-2.105469 55.964844-28.242187 56-59.800781v-104c0-33.136719-26.863281-60-60-60s-60 26.863281-60 60v104c.0390625 28.5 20.085938 53.054688 48 58.792969zm64 185.207031v-48.441406c57.648438-6.277344 102.953125-78.671875 120-110.015625 17.046875 31.34375 62.351562 103.738281 120 110.015625v48.441406zm304-52.6875v52.6875h-48v-64h-8c-66.054688 0-120.207031-114.230469-120.753906-115.382812l-7.246094-15.519532-7.246094 15.519532c-.546875 1.152343-54.609375 115.382812-120.753906 115.382812h-8v64h-48v-52.6875l184-184zm-400-295.3125c0-24.300781 19.699219-44 44-44s44 19.699219 44 44v104c0 24.300781-19.699219 44-44 44s-44-19.699219-44-44zm0 0"/></svg>