<svg height="485pt" viewBox="0 -11 485.55584 485" width="485pt" xmlns="http://www.w3.org/2000/svg"><path d="m29.722656 231.714844c.59375.140625 1.199219.207031 1.808594.207031 1.632812-.003906 3.222656-.503906 4.5625-1.433594l51.199219-35.605469c17.382812 17.414063 38.757812 30.320313 62.261719 37.597657l58.984374 13.601562-86.183593 107.933594c-1.722657 2.148437-2.21875 5.03125-1.3125 7.632813.902343 2.597656 3.078125 4.550781 5.761719 5.167968l39.199218 9.074219c2.195313.503906 4.5.0625 6.351563-1.21875l148.398437-102.621094 89.457032 20.671875-6.109376 12.222656c-2.125-.648437-4.328124-.992187-6.546874-1.023437-11.085938-.035156-20.761719 7.503906-23.4375 18.261719-2.679688 10.761718 2.335937 21.957031 12.144531 27.121094 9.808593 5.167968 21.875 2.96875 29.234375-5.324219 7.355468-8.292969 8.101562-20.535157 1.804687-29.660157l8.949219-17.902343 29.304688 6.773437c1.804687.417969 3.648437.628906 5.496093.632813 9.339844-.007813 17.824219-5.429688 21.753907-13.902344 3.925781-8.472656 2.585937-18.453125-3.441407-25.585937l-34.207031-40.328126c-9.273438-10.882812-21.785156-18.515624-35.703125-21.78125l-55.203125-13.601562-98.398438-175.199219c-1.101562-1.964843-2.980468-3.375-5.175781-3.878906l-39.199219-9.066406c-2.675781-.613281-5.480468.1875-7.429687 2.121093-1.949219 1.9375-2.769531 4.734376-2.171875 7.414063l33.351562 149.273437-102.847656-25.367187-32.488281-103.601563c-.847656-2.707031-3.070313-4.761718-5.839844-5.398437l-31.375-7.28125c-2.402343-.554687-4.925781.027344-6.839843 1.582031-1.914063 1.550782-3.007813 3.898438-2.960938 6.363282l1.730469 89.167968-29.128907-7.199218c-3.441406-.847657-7.023437.671874-8.8125 3.730468-1.789062 3.054688-1.355468 6.925782 1.066407 9.507813l27.953125 29.761719-44.246094 63.34375c-1.5234375 2.183593-1.859375 4.980468-.894531 7.464843.960937 2.480469 3.097656 4.324219 5.691406 4.910157zm367.832032 104.207031c-4.417969 0-8-3.582031-8-8s3.582031-8 8-8c4.417968 0 8 3.582031 8 8s-3.582032 8-8 8zm-311.558594-296.472656 27.742187 88.519531-43.070312-9.953125-1.601563-82.480469zm80.199218 320-23.40625-5.40625 105.207032-131.648438 87.289062 20.167969zm54.046876-340.535157 23.410156 5.40625 89.289062 159.039063-80.378906-19.804687zm185.488281 198.871094c10.605469 2.476563 20.136719 8.285156 27.203125 16.574219l6.476562 7.640625-49.695312-11.496094-3.605469 15.585938 70.644531 16.328125 10.402344 12.296875c1.628906 1.917968 2.261719 4.492187 1.703125 6.949218-.472656 2.066407-1.761719 3.855469-3.566406 4.960938-1.828125 1.136719-4.035157 1.5-6.128907 1.007812l-120.59375-27.886718 20.707032-14.320313c2.621094-1.796875 3.929687-4.976562 3.335937-8.097656s-2.980469-5.597656-6.082031-6.304687l-86.304688-19.902344-23.535156-5.441406c-2.996094-.691407-6.125.398437-8.046875 2.800781l-19.007812 23.777343-66.449219-15.359374c-19.652344-6.320313-37.609375-17.027344-52.511719-31.3125l24.078125-16.730469c2.625-1.796875 3.929688-4.980469 3.332032-8.105469-.601563-3.121094-2.996094-5.59375-6.097657-6.292969l-62.832031-14.464843c-.527344-.101563-1.0625-.144532-1.601562-.128907l-9.597657-10.277343zm-344.878907-60.984375 39.921876 9.222657-70.898438 49.304687-8.542969-1.976563zm0 0"/><path d="m5.554688 447.921875h480v16h-480zm0 0"/></svg>