<svg height="480pt" viewBox="-40 0 480 480" width="480pt" xmlns="http://www.w3.org/2000/svg"><path d="m80 480h240c13.253906 0 24-10.746094 24-24v-16h48c4.417969 0 8-3.582031 8-8v-104c-.003906-3.570312-2.371094-6.710938-5.808594-7.6875l-50.191406-14.34375v-209.96875c-.023438-19-13.386719-35.371094-32-39.199219v-48.800781c0-4.417969-3.582031-8-8-8h-48c-4.417969 0-8 3.582031-8 8v48h-104v-48c0-4.417969-3.582031-8-8-8h-48c-4.417969 0-8 3.582031-8 8v51.390625c-14.558594 6.355469-23.980469 20.722656-24 36.609375v209.96875l-50.191406 14.34375c-3.4375.976562-5.80468775 4.117188-5.808594 7.6875v104c0 4.417969 3.582031 8 8 8h48v16c0 13.253906 10.746094 24 24 24zm176-296v120h-32v-24c2.78125.015625 5.367188-1.414062 6.835938-3.773438 1.46875-2.363281 1.605468-5.316406.363281-7.800781l-7.199219-14.3125v-20.226562l7.199219-14.3125c1.242187-2.484375 1.105469-5.4375-.363281-7.800781-1.46875-2.359376-4.054688-3.789063-6.835938-3.773438v-24zm72 0v216h-56v-216zm-184 136h112v80h-112zm64.800781-60.425781 2.214844 4.425781h-22.070313l2.214844-4.425781c.554688-1.109375.839844-2.332031.839844-3.574219v-24c0-1.242188-.285156-2.464844-.839844-3.574219l-2.214844-4.425781h22.109376l-2.214844 4.425781c-.554688 1.109375-.839844 2.332031-.839844 3.574219v24c-.011719 1.238281.261719 2.460938.800781 3.574219zm-16.800781 20.425781h16v24h-16zm16-72h-16v-24h16zm-32 0c-2.773438 0-5.347656 1.433594-6.808594 3.792969-1.457031 2.355469-1.589844 5.300781-.351562 7.78125l7.160156 14.3125v20.226562l-7.160156 14.3125c-1.238282 2.480469-1.105469 5.425781.351562 7.78125 1.460938 2.359375 4.035156 3.792969 6.808594 3.792969v24h-32v-120h32zm-48 104v88h-56v-216h56zm200 144c0 4.417969-3.582031 8-8 8h-240c-4.417969 0-8-3.582031-8-8v-40h256zm16-32v-69.390625l40 11.421875v57.96875zm40-89.96875v15.359375l-40-11.421875v-15.359375zm-120-318.03125h32v40h-32zm-168 0h32v40h-32zm-24 80c0-13.253906 10.746094-24 24-24h208c13.253906 0 24 10.746094 24 24v72h-256zm-56 238.03125 40-11.421875v15.359375l-40 11.421875zm0 89.96875v-57.96875l40-11.421875v69.390625zm0 0"/><path d="m168 104h64v16h-64zm0 0"/><path d="m176 128h48v16h-48zm0 0"/></svg>