<svg height="480pt" viewBox="0 0 480 480.04001" width="480pt" xmlns="http://www.w3.org/2000/svg"><path d="m349.523438 253.65625c26.289062-27.546875 41.382812-63.890625 42.34375-101.953125.351562-66.683594-43.082032-125.699219-106.855469-145.191406-13.953125-4.042969-28.386719-6.195313-42.910157-6.398438-.738281-.035156-1.433593-.113281-2.234374-.113281h-.070313c-.542969 0-1.082031.078125-1.601563.0976562-83.304687.8007818-150.394531 68.5937498-150.328124 151.9023438-.554688 23.023438 5.007812 45.78125 16.121093 65.953125 8.121094 14.636719 18.320313 28.023437 30.28125 39.734375l11.367188 11.375c19.429687 19.332031 30.316406 45.632812 30.230469 73.042969v1.894531c.046874.375.121093.742188.226562 1.105469-.015625.265625-.015625.53125 0 .796875l15.773438 63.082031v63.015625c0 4.417969 3.582031 8 8 8h80c4.417968 0 8-3.582031 8-8v-63.015625l15.761718-63.046875c.015625-.269531.015625-.535156 0-.800781.109375-.371094.1875-.753907.238282-1.136719v-1.894531c-.078126-27.414063 10.816406-53.714844 30.257812-73.042969zm-11.3125-11.3125-1.6875 1.6875h-34.128907c7.679688-19.261719 12.804688-39.441406 15.25-60.03125h53.320313c-5.953125 21.847656-17.203125 41.886719-32.753906 58.34375zm-64.589844 157.65625h-9.753906v-32c0-4.417969-3.582032-8-8-8h-32c-4.417969 0-8 3.582031-8 8v32h-9.75l-12-48h91.503906zm-25.753906 0h-16v-24h16zm-64.695313-187.929688c-2.503906-9.210937-4.351563-18.59375-5.519531-28.070312h54.214844v60h-36.902344c-4.855469-10.277344-8.804688-20.960938-11.792969-31.929688zm-7.304687-60.070312c-.007813-14.304688 1.109374-28.589844 3.335937-42.71875h52.664063v58.71875h-55.597657c-.265625-5.089844-.402343-10.398438-.402343-16zm-1.535157-88c-3.488281 9.550781-6.300781 19.335938-8.425781 29.28125h-48.796875c5.042969-10.546875 11.441406-20.390625 19.03125-29.28125zm17.113281 0h40.421876v29.28125h-49.527344c2.257812-9.984375 5.300781-19.777344 9.105468-29.28125zm152.71875 0c7.398438 8.933594 13.625 18.773438 18.535157 29.28125h-48.71875c-2.066407-9.941406-4.816407-19.722656-8.234375-29.28125zm-46.761718 29.28125h-49.535156v-29.28125h40.585937c3.730469 9.515625 6.722656 19.304688 8.949219 29.28125zm6.464844 58.445312c0 5.28125-.277344 10.753907-.6875 16.273438h-55.3125v-58.71875h52.648437c2.222656 14.039062 3.339844 28.230469 3.351563 42.445312zm-56-103.726562v-30.839844c3.3125.914063 6.488281 2.257813 9.449218 4 10.128906 6.691406 18.296875 15.953125 23.664063 26.839844zm-24-27.457031c2.515624-1.460938 5.203124-2.597657 8-3.390625v30.847656h-32.800782c5.71875-11.167969 14.269532-20.636719 24.800782-27.457031zm8 239.457031v76h-12.078126c-.191406-26.25-5.976562-52.160156-16.96875-76zm16 76v-76h29.046874c-10.992187 23.839844-16.777343 49.75-16.964843 76zm0-92v-60h53.601562c-2.480469 20.722656-8.078125 40.949219-16.601562 60zm126.585937-76h-55.199219c.375-5.503906.628906-10.96875.621094-16.289062-.011719-14.1875-1.046875-28.359376-3.085938-42.398438h52.3125c4.449219 13.703125 6.730469 28.015625 6.765626 42.421875-.058594 5.449219-.535157 10.886719-1.414063 16.265625zm-45.953125-120h-29.433594c-4.210937-9.035156-9.539062-17.507812-15.863281-25.214844 16.660156 5.226563 32.074219 13.808594 45.296875 25.214844zm-131.425781-25.03125c-6.316407 7.660156-11.667969 16.066406-15.933594 25.03125h-28.90625c1.953125-1.640625 3.945313-3.238281 6-4.800781 11.757813-8.816407 24.878906-15.648438 38.839844-20.230469zm-86.375 86.3125h52.367187c-2.121094 14.140625-3.191406 28.417969-3.199218 42.71875 0 5.601562.136718 10.886719.394531 16h-55.59375c-.554688-5.316406-.824219-10.65625-.800781-16 0-14.511719 2.304687-28.933594 6.832031-42.71875zm7.367187 101.117188c-4.566406-8.332032-8.078125-17.199219-10.460937-26.398438h53.949219c1.238281 10.886719 3.300781 21.664062 6.167968 32.238281 2.578125 9.46875 5.816406 18.746094 9.6875 27.761719h-34.054687c-9.914063-10-18.421875-21.304688-25.289063-33.601562zm40.945313 49.601562h25.929687l3.46875 6.953125c9.867188 21.695313 15.082032 45.214844 15.304688 69.046875h-12c-1.394532-28.445312-13.007813-55.429688-32.703125-76zm112.855469 204h-64v-48h64zm16.152343-128h-12c.230469-23.820312 5.441407-47.332031 15.304688-69.015625l3.472656-6.953125h25.925781c-19.6875 20.5625-31.296875 47.535156-32.703125 75.96875zm0 0"/><path d="m447.066406 302.640625c-3.847656-2.878906-8.304687-4.835937-13.03125-5.71875-7.09375-11.550781-20.144531-18.050781-33.636718-16.757813-13.488282 1.289063-25.070313 10.152344-29.84375 22.835938-3.359376-.902344-6.824219-1.359375-10.300782-1.359375-22.757812 0-41.203125 18.445313-41.203125 41.199219s18.445313 41.199218 41.203125 41.199218h78.292969c22.78125 0 41.265625-18.433593 41.320313-41.214843.042968-19.5-13.683594-36.320313-32.800782-40.183594zm-8.550781 65.359375h-78.296875c-10.59375.09375-20.113281-6.453125-23.816406-16.382812-3.703125-9.925782-.796875-21.109376 7.269531-27.976563s19.570313-7.953125 28.78125-2.710937c2.40625 1.328124 5.332031 1.328124 7.742187-.003907 2.40625-1.332031 3.960938-3.808593 4.113282-6.558593.515625-8.992188 7.128906-16.460938 15.996094-18.0625 8.867187-1.597657 17.671874 3.085937 21.300781 11.335937 1.242187 2.847656 4.019531 4.71875 7.125 4.800781 3.546875.078125 6.945312 1.410156 9.601562 3.757813 1.140625 1.003906 2.546875 1.660156 4.046875 1.890625 12.316406 1.757812 21.46875 12.296875 21.488282 24.734375-.0625 13.945312-11.402344 25.210937-25.351563 25.175781zm0 0"/><path d="m128.035156 398.640625c-3.847656-2.878906-8.304687-4.835937-13.03125-5.71875-7.09375-11.550781-20.144531-18.050781-33.636718-16.757813-13.492188 1.289063-25.070313 10.152344-29.84375 22.835938-3.359376-.902344-6.824219-1.359375-10.304688-1.359375-22.753906 0-41.1992188 18.445313-41.1992188 41.199219s18.4453128 41.199218 41.1992188 41.199218h78.296875c22.777344.019532 41.273437-18.398437 41.351563-41.175781.058593-19.523437-13.6875-36.371093-32.832032-40.222656zm-8.519531 65.359375h-78.296875c-10.589844.085938-20.105469-6.464844-23.804688-16.390625-3.699218-9.925781-.789062-21.105469 7.277344-27.972656 8.070313-6.863281 19.570313-7.949219 28.777344-2.707031 2.410156 1.328124 5.332031 1.328124 7.742188-.003907 2.40625-1.332031 3.960937-3.808593 4.113281-6.558593.515625-8.992188 7.128906-16.460938 15.996093-18.0625 8.867188-1.597657 17.671876 3.085937 21.300782 11.335937 1.242187 2.847656 4.019531 4.71875 7.125 4.800781 3.546875.078125 6.945312 1.410156 9.601562 3.757813 1.140625 1.003906 2.546875 1.660156 4.046875 1.890625 12.335938 1.765625 21.492188 12.335937 21.480469 24.796875-.097656 13.925781-11.433594 25.152343-25.359375 25.113281zm0 0"/><path d="m29.523438 285.65625 3.351562-3.351562c1.121094-1.105469 2.695312-1.613282 4.25-1.367188 1.554688.238281 2.894531 1.222656 3.582031 2.636719 1.355469 2.71875 4.128907 4.433593 7.160157 4.433593 3.035156 0 5.808593-1.714843 7.160156-4.433593.691406-1.414063 2.03125-2.398438 3.585937-2.636719 1.550781-.246094 3.128907.261719 4.246094 1.367188l3.351563 3.351562c3.140624 3.03125 8.128906 2.988281 11.214843-.097656 3.085938-3.085938 3.128907-8.074219.097657-11.214844l-3.351563-3.351562c-7.019531-7.03125-18.027344-8.136719-26.304687-2.640626-8.277344-5.496093-19.28125-4.390624-26.304688 2.640626l-3.351562 3.351562c-3.03125 3.140625-2.988282 8.128906.097656 11.214844 3.085937 3.085937 8.078125 3.128906 11.214844.097656zm0 0"/><path d="m413.523438 68.800781 3.351562-3.351562c1.109375-1.117188 2.691406-1.628907 4.242188-1.378907 1.554687.253907 2.890624 1.238282 3.589843 2.648438 1.503907 2.523438 4.222657 4.070312 7.160157 4.070312s5.65625-1.546874 7.160156-4.070312c.699218-1.410156 2.035156-2.394531 3.589844-2.648438 1.554687-.25 3.132812.261719 4.242187 1.378907l3.351563 3.351562c3.140624 3.03125 8.128906 2.988281 11.214843-.097656 3.085938-3.085937 3.128907-8.074219.097657-11.214844l-3.34375-3.351562c-4.753907-4.742188-11.492188-6.921875-18.121094-5.855469-2.925782.464844-5.722656 1.554688-8.191406 3.199219-2.46875-1.644531-5.261719-2.734375-8.191407-3.199219-6.625-1.058594-13.359375 1.117188-18.113281 5.855469l-3.351562 3.351562c-3.03125 3.140625-2.988282 8.128907.097656 11.214844 3.085937 3.085937 8.078125 3.128906 11.214844.097656zm0 0"/></svg>