<svg height="481pt" viewBox="0 -27 481.368 481" width="481pt" xmlns="http://www.w3.org/2000/svg"><path d="m233.6875 426.433594 15.359375-4.488282c-17.605469-51.640624-45.773437-99.046874-82.710937-139.199218 50.054687 7.3125 61.792968 20.097656 81.128906 41.3125 21.910156 24.046875 51.933594 56.984375 150.742187 99.464844l6.320313-14.707032c-95.640625-41.09375-124.3125-72.550781-145.246094-95.519531-22.714844-24.964844-37.914062-41.511719-111.472656-48.886719-3.039063-2.785156-6.15625-5.523437-9.34375-8.222656h342.902344v-16h-41.855469c6.691406-28.902344-5.027344-58.953125-29.523438-75.691406-24.492187-16.738282-56.746093-16.738282-81.242187 0-24.496094 16.738281-36.214844 46.789062-29.523438 75.691406h-181.382812c-10.984375-7.785156-22.507813-14.777344-34.480469-20.929688 13.710937-42.980468 44.601563-78.367187 85.335937-97.757812 34.351563 34.933594 16.480469 90.988281 16.28125 91.566406-1.132812 3.382813.113282 7.105469 3.050782 9.125 2.9375 2.023438 6.855468 1.859375 9.613281-.40625 5.199219-4.261718 31.199219-26.398437 33.792969-43.808594.359375-1.597656 7.078125-34.628906-34.859375-61.277343 36.929687 5.976562 62.011719 39.765625 62.3125 40.183593 2.085937 2.902344 5.84375 4.070313 9.207031 2.863282 3.363281-1.210938 5.515625-4.503906 5.273438-8.070313-.429688-6.707031-3.199219-40.800781-15.886719-52.992187-.960938-1.082032-18.9375-20.351563-54.746094-12.234375 17.074219-28.65625 6.480469-50.398438 6.035156-51.199219-7.136719-16.710938-37.945312-31.535156-44.050781-34.335938-3.238281-1.488281-7.066406-.652343-9.394531 2.042969-2.328125 2.699219-2.589844 6.613281-.644531 9.597657 11.105468 18.476562 16.863281 39.675781 16.640624 61.230468-12.289062-36.414062-39.144531-41.253906-40.144531-41.390625-17.777343-4.105469-47.855469 12-53.703125 15.304688-3.113281 1.734375-4.703125 5.316406-3.898437 8.789062.800781 3.472657 3.804687 5.992188 7.363281 6.1875.597656 0 56.75 3.710938 77.910156 45.671875-42.65625 21.277344-75.082031 58.675782-90.105468 103.917969-21.101563-9.332031-43.269532-16.035156-66.007813-19.960937l-2.734375 15.761718c176.792969 30.75 233.144531 216.488282 233.6875 218.367188zm79.679688-202.246094c.03125-21.933594 12.863281-41.832031 32.828124-50.90625 19.96875-9.078125 43.398438-5.660156 59.941407 8.742188 16.542969 14.402343 23.15625 37.132812 16.917969 58.164062h-107.367188c-1.546875-5.191406-2.328125-10.582031-2.320312-16zm-97.65625-49.128906c-2.046876 6.390625-5.59375 12.195312-10.34375 16.9375 2.152343-18.238282-.144532-36.726563-6.703126-53.882813 20.40625 18.007813 17.304688 35.609375 17.046876 36.945313zm-60-97.671875c-13.554688-12.378907-29.910157-21.285157-47.664063-25.953125 6.332031-2.710938 13.222656-3.859375 20.089844-3.34375.246093.039062 18.144531 3.199218 27.582031 29.296875zm90.21875 32.398437c3.992187 5.394532 6.636718 11.664063 7.71875 18.289063-13.5625-12.382813-29.921876-21.292969-47.679688-25.96875 26.527344-6.128907 39.023438 6.648437 39.960938 7.679687zm-51.648438-67.679687c.109375.214843 8.117188 16.535156-7.394531 39.550781 2-18.246094-.453125-36.707031-7.152344-53.796875 5.921875 3.5 10.910156 8.371094 14.546875 14.207031zm0 0"/><path d="m233.367188 208.1875h48v16h-48zm0 0"/><path d="m283.714844 149.84375 11.3125-11.316406 15.996094 16-11.3125 11.3125zm0 0"/><path d="m353.367188 88.1875h16v48h-16zm0 0"/><path d="m427.714844 154.527344 15.996094-15.996094 11.3125 11.3125-15.996094 15.996094zm0 0"/><path d="m457.367188 208.1875h24v16h-24zm0 0"/><path d="m305.367188 272.1875h128v16h-128zm0 0"/><path d="m329.367188 304.1875h80v16h-80zm0 0"/><path d="m353.367188 336.1875h32v16h-32zm0 0"/></svg>