<svg height="463pt" viewBox="0 0 463.94209 463" width="463pt" xmlns="http://www.w3.org/2000/svg"><path d="m0 232.46875c-.03125 58.753906 22.320312 115.3125 62.503906 158.175781l-.160156.167969 11.3125 11.3125.167969-.160156c91.316406 85.332031 233.839843 82.921875 322.214843-5.457032 88.375-88.375 90.789063-230.898437 5.457032-322.214843l.160156-.167969-11.3125-11.3125-.167969.160156c-89.007812-83.316406-227.375-83.339844-316.40625-.046875l-.113281-.113281-2.855469 2.855469c-1.023437.984375-2.007812 2.007812-3.015625 3.019531l-5.441406 5.4375.074219.074219c-.273438.285156-.554688.550781-.800781.839843-39.671876 42.816407-61.6835942 99.058594-61.617188 157.429688zm85.128906 158.183594 73.640625-73.640625c41.957031 36.609375 104.503907 36.609375 146.460938 0l73.601562 73.640625c-82.742187 77.085937-211 77.085937-293.742187 0zm146.871094-254.183594c53.019531 0 96 42.980469 96 96s-42.980469 96-96 96-96-42.980469-96-96c.058594-52.996094 43.003906-95.941406 96-96zm216 96c.03125 54.515625-20.632812 107.007812-57.816406 146.871094l-73.640625-73.597656c36.609375-41.960938 36.609375-104.503907 0-146.464844l73.640625-73.601563c37.164062 39.847657 57.828125 92.308594 57.816406 146.792969zm-216-216c54.515625-.03125 107.007812 20.632812 146.871094 57.816406l-73.597656 73.601563c-41.960938-36.609375-104.507813-36.609375-146.464844 0l-73.679688-73.679688c39.957032-37.027343 92.398438-57.640625 146.871094-57.738281zm-84.542969 142.769531c-36.609375 41.957031-36.609375 104.503907 0 146.464844l-33.113281 33.109375-40.527344 40.527344c-76.90625-82.625-77.113281-210.566406-.472656-293.4375.121094-.136719.257812-.265625.382812-.394532zm0 0"/></svg>