<svg height="480pt" viewBox="0 -104 480 480" width="480pt" xmlns="http://www.w3.org/2000/svg"><path d="m224 200h32v16h-32zm0 0"/><path d="m77.03125 112.566406c-.464844.1875-45.742188 19.050782-36.953125 80.570313l15.84375-2.273438c-6.960937-48.703125 25.679687-62.863281 27.101563-63.457031l-3.023438-7.40625zm0 0"/><path d="m424.078125 190.863281 15.84375 2.273438c8.796875-61.519531-36.488281-80.382813-36.953125-80.570313l-5.992188 14.839844c1.421876.59375 34.0625 14.753906 27.101563 63.457031zm0 0"/><path d="m8 272h464c4.417969 0 8-3.582031 8-8s-3.582031-8-8-8h-51.046875c38.285156-25.257812 53.335937-74.085938 35.910156-116.515625s-62.449219-66.585937-107.4375-57.644531l-18.816406-65.839844h5.390625c4.417969 0 8-3.582031 8-8s-3.582031-8-8-8h-64c-4.417969 0-8 3.582031-8 8s3.582031 8 8 8h41.960938l20.09375 70.3125c-34.546876 13.109375-58.511719 44.871094-61.648438 81.6875h-26.863281l-45-120h15.457031c4.417969 0 8-3.582031 8-8s-3.582031-8-8-8h-64c-4.417969 0-8 3.582031-8 8s3.582031 8 8 8h30.566406l-26.695312 42.710938c-45.296875-23.34375-100.945313-7.1875-126.703125 36.785156-25.757813 43.96875-12.632813 100.40625 29.878906 128.503906h-51.046875c-4.417969 0-8 3.582031-8 8s3.582031 8 8 8zm360-176c43.144531-.003906 78.519531 34.203125 79.960938 77.324219 1.445312 43.121093-31.566407 79.617187-74.613282 82.496093-43.046875 2.882813-80.625-28.890624-84.941406-71.820312h79.59375c4.417969 0 8-3.582031 8-8-.039062-.738281-.1875-1.464844-.441406-2.160156h.136718l-21.847656-76.472656c4.667969-.875 9.402344-1.332032 14.152344-1.367188zm-29.542969 5.71875 18.933594 66.28125h-68.984375c3.039062-29.6875 22.328125-55.230469 50.050781-66.28125zm-98.457031 82.28125h32.40625c2.457031 29.257812 18.167969 55.785156 42.640625 72h-150.09375c24.472656-16.214844 40.183594-42.742188 42.640625-72zm-48.40625-16h-65.152344l34.46875-55.199219c17.375 13.40625 28.46875 33.367188 30.683594 55.199219zm-1.402344-102.023438 38.265625 102.023438h-20.863281c-2.308594-27.328125-16.207031-52.359375-38.1875-68.761719zm-158.191406 110.023438c-.058594-27.664062 14.207031-53.382812 37.703125-67.980469 23.496094-14.597656 52.878906-15.988281 77.648437-3.675781l-42.136718 67.417969c-1.539063 2.464843-1.621094 5.574219-.210938 8.117187 1.410156 2.542969 4.085938 4.121094 6.996094 4.121094h79.59375c-4.296875 42.382812-41.054688 73.964844-83.597656 71.832031-42.546875-2.132812-75.960938-37.234375-75.996094-79.832031zm0 0"/></svg>