<svg height="480pt" viewBox="0 -16 480.00177 480" width="480pt" xmlns="http://www.w3.org/2000/svg"><path d="m112 447.996094c58.695312-.089844 107.375-45.457032 111.59375-104h32.800781c4.140625 60.246094 55.324219 106.347656 115.671875 104.1875 60.351563-2.15625 108.109375-51.796875 107.933594-112.1875 0-3.007813-.214844-5.957032-.445312-8.902344l.390624-.046875-24-200c-.214843-1.78125-1.019531-3.4375-2.289062-4.707031l-1.246094-1.246094c-3.957031-3.898438-8.179687-7.511719-12.640625-10.816406l-15.9375-77.65625c-.261719-1.230469-.808593-2.382813-1.597656-3.359375l-3.03125-3.824219c-12.160156-16.023438-31.117187-25.4375-51.234375-25.4375-20.113281 0-39.070312 9.414062-51.230469 25.4375l-3.039062 3.832031c-.792969.976563-1.339844 2.128907-1.601563 3.359375l-15.9375 77.65625c-4.460937 3.304688-8.683594 6.917969-12.640625 10.816406l-1.246093 1.246094c-1.277344 1.28125-2.082032 2.953125-2.289063 4.746094l-2.808594 24.902344h-74.261719l-2.96875-24.734375c-.21875-1.777344-1.023437-3.433594-2.289062-4.703125l-1.246094-1.25c-3.941406-3.878906-8.144531-7.480469-12.585937-10.773438l-16-77.914062c-.261719-1.230469-.808594-2.382813-1.597657-3.359375l-3.023437-3.824219c-12.160156-16.023438-31.117187-25.4375-51.234375-25.4375-20.113281 0-39.070312 9.414062-51.230469 25.4375l-3.039062 3.832031c-.777344.980469-1.3125 2.132813-1.5625 3.359375l-16 77.914063c-4.4375 3.292969-8.644531 6.894531-12.582031 10.773437l-1.25 1.25c-1.277344 1.277344-2.082032 2.949219-2.289063 4.742188l-21.199219 184.066406c-7.601562 33.199219.359375 68.050781 21.625 94.65625 21.261719 26.609375 53.5 42.058594 87.558594 41.964844zm0-16c-52.820312-.046875-95.699219-42.722656-96-95.542969l2.570312-22.257813c11.394532-48.875 58.515626-80.722656 108.113282-73.078124 49.601562 7.644531 84.945312 52.203124 81.09375 102.242187-3.847656 50.039063-45.589844 88.667969-95.777344 88.636719zm144.410156-104h-32.800781c0-.230469 0-.460938 0-.6875l.382813-.046875-5.71875-47.265625h44.128906l-3.648438 31.585937c-1.191406 5.40625-1.972656 10.890625-2.34375 16.414063zm7.847656-64h-47.90625l-7.679687-64h62.96875zm103.742188 168c-52.878906-.050782-95.777344-42.816406-96-95.695313l2.53125-21.925781c11.308594-48.921875 58.402344-80.863281 108.035156-73.277344 49.632813 7.589844 85.039063 52.140625 81.21875 102.203125-3.820312 50.066407-45.574218 88.726563-95.785156 88.695313zm-40.542969-394.285156 1.855469-2.355469c9.125-12.1875 23.460938-19.363281 38.6875-19.363281s29.5625 7.175781 38.6875 19.363281l1.859375 2.347656 12.511719 60.957031c-33.441406-16.519531-72.671875-16.519531-106.113282 0zm112.9375 94 16.34375 136.214843c-20.976562-27.515625-53.523437-43.746093-88.121093-43.941406-34.597657-.199219-67.328126 15.660156-88.617188 42.933594l15.601562-135.199219c40.226563-39.386719 104.558594-39.390625 144.792969-.007812zm-165.058593 36.285156-1.847657 16h-66.734375l-1.921875-16zm-203.878907-130.285156 1.855469-2.355469c9.125-12.1875 23.460938-19.363281 38.6875-19.363281s29.5625 7.175781 38.6875 19.363281l1.859375 2.347656 12.558594 61.199219c-33.46875-16.554688-72.738281-16.554688-106.207031 0zm-31.832031 94.199218c40.230469-39.390625 104.570312-39.390625 144.800781 0l16.3125 135.949219c-20.980469-27.488281-53.519531-43.699219-88.097656-43.890625-34.582031-.191406-67.296875 15.65625-88.582031 42.910156zm0 0"/><path d="m112 255.996094c-44.179688 0-80 35.820312-80 80 0 44.183594 35.820312 80 80 80 44.183594 0 80-35.816406 80-80-.046875-44.160156-35.835938-79.949219-80-80zm0 144c-35.34375 0-64-28.652344-64-64 0-35.34375 28.65625-64 64-64 35.347656 0 64 28.65625 64 64-.039062 35.332031-28.667969 63.960937-64 64zm0 0"/><path d="m368 255.996094c-44.179688 0-80 35.820312-80 80 0 44.183594 35.820312 80 80 80 44.183594 0 80-35.816406 80-80-.046875-44.160156-35.835938-79.949219-80-80zm0 144c-35.34375 0-64-28.652344-64-64 0-35.34375 28.65625-64 64-64 35.347656 0 64 28.65625 64 64-.039062 35.332031-28.667969 63.960937-64 64zm0 0"/><path d="m40.046875 223.53125 8.042969-88.003906 15.933594 1.453125-8.039063 88.007812zm0 0"/><path d="m296.105469 223.492188 8.039062-88.007813 15.9375 1.457031-8.042969 88.007813zm0 0"/></svg>