<svg height="480pt" viewBox="0 0 480.26747 480" width="480pt" xmlns="http://www.w3.org/2000/svg"><path d="m413.789062 370.617188c-1.117187-1.117188-2.539062-1.878907-4.085937-2.1875l-37.601563-7.527344-56.671874-56.671875 97.640624-102.671875c37.996094-39.808594 59.15625-92.75 59.0625-147.78125-.027343-25.117188-20.378906-45.476563-45.496093-45.507813h-5c-56.898438-.152343-111.5 22.464844-151.621094 62.808594l-93.882813 93.882813-56.632812-56.632813-7.527344-37.601563c-.304687-1.550781-1.0625-2.972656-2.183594-4.085937l-57.375-57.402344c-7.71875-7.816406-19.039062-10.898437-29.65625-8.078125-10.617187 2.824219-18.910156 11.117188-21.730468 21.738282-2.820313 10.617187.261718 21.933593 8.082031 29.652343l57.367187 57.375c1.117188 1.117188 2.539063 1.878907 4.089844 2.1875l37.597656 7.527344 56.65625 56.628906-90.351562 90.355469c-42.609375 42.382812-66.496094 100.050781-66.335938 160.152344.03125 25.113281 20.386719 45.46875 45.503907 45.492187h4.800781c62.007812-.117187 121.28125-25.542969 164.097656-70.398437l81.839844-86.046875 56.390625 56.390625 7.527344 37.601562c.304687 1.550782 1.066406 2.972656 2.183593 4.085938l57.378907 57.378906c7.71875 7.816406 19.035156 10.898438 29.652343 8.078125 10.621094-2.824219 18.914063-11.117187 21.734376-21.738281 2.820312-10.617188-.265626-21.933594-8.085938-29.652344zm-337.710937-273.714844-55.664063-55.664063c-4.179687-4.183593-5.425781-10.476562-3.160156-15.9375 2.265625-5.464843 7.597656-9.027343 13.511719-9.03125 3.882813-.007812 7.605469 1.53125 10.34375 4.28125l55.65625 55.664063 5.167969 25.863281zm205.246094-14.511719c37.132812-37.335937 87.65625-58.261719 140.3125-58.121094h5c16.285156.019531 29.484375 13.21875 29.496093 29.507813.085938 50.921875-19.496093 99.910156-54.65625 136.75l-97.390624 102.382812-20.640626-20.640625 77.097657-77.085937c20.796875-20.800782 20.792969-54.519532-.003907-75.316406-20.800781-20.796876-54.519531-20.792969-75.316406.003906l-77.089844 77.089844-20.6875-20.691407zm-35.535157 152.226563-26.34375-26.347657 77.097657-77.085937c14.597656-14.246094 37.941406-14.101563 52.363281.324218 14.421875 14.425782 14.5625 37.765626.316406 52.363282l-77.089844 77.089844zm15.03125 37.652343-77.09375 77.089844c-14.601562 14.246094-37.941406 14.101563-52.363281-.324219-14.425781-14.425781-14.566406-37.765625-.316406-52.363281l77.085937-77.089844zm-49.894531 118.578125c-39.789062 41.6875-94.875 65.316406-152.503906 65.421875h-4.800781c-16.277344-.019531-29.46875-13.214843-29.488282-29.492187-.148437-55.855469 22.046876-109.453125 61.648438-148.84375l90.351562-90.351563 20.6875 20.6875-77.09375 77.089844c-20.796874 20.800781-20.796874 54.519531.003907 75.316406 20.796875 20.796875 54.519531 20.792969 75.316406-.003906l77.085937-77.089844 20.921876 20.929688zm238.574219 73.421875c-3.878906.011719-7.601562-1.527343-10.34375-4.277343l-55.65625-55.664063-5.167969-25.863281 25.859375 5.175781 55.664063 55.664063c4.175781 4.183593 5.421875 10.476562 3.15625 15.9375-2.265625 5.464843-7.59375 9.027343-13.511719 9.027343zm0 0"/><path d="m48.132812 368.269531h16v16h-16zm0 0"/><path d="m104.132812 416.269531h16v16h-16zm0 0"/><path d="m360.132812 48.269531h16v16h-16zm0 0"/><path d="m416.132812 96.269531h16v16h-16zm0 0"/></svg>