<svg height="487pt" viewBox="0 -43 487.99803 487" width="487pt" xmlns="http://www.w3.org/2000/svg"><path d="m480 214.554688h-44.992188l-77.734374-68.070313c-1.457032-1.28125-3.332032-1.984375-5.273438-1.984375h-28.152344l-61.597656-77c-1.519531-1.898438-3.816406-3-6.25-3h-51.054688l-29.742187-59.578125c-1.363281-2.722656-4.15625-4.4375-7.203125-4.421875h-48c-2.773438-.003906-5.347656 1.433594-6.804688 3.789062-1.460937 2.359376-1.59375 5.304688-.355468 7.785157l26.21875 52.425781h-14.113282l-29.742187-59.578125c-1.363281-2.722656-4.15625-4.4375-7.203125-4.421875h-48c-2.773438-.003906-5.347656 1.433594-6.804688 3.789062-1.460937 2.359376-1.59375 5.304688-.355468 7.785157l26.21875 52.425781h-19.058594c-4.417969 0-8 3.582031-8 8v142.054688h-24c-2.273438 0-4.445312.96875-5.960938 2.667968-1.519531 1.695313-2.242187 3.957032-1.9882808 6.21875l13.8789068 124.953125c-4.152344 2.679688-8.988282 4.105469-13.929688 4.105469v16c8.585938.019531 16.96875-2.609375 24-7.535156 14.433594 10.019531 33.570312 10.019531 48 0 14.429688 10.023437 33.570312 10.023437 48 0 14.429688 10.023437 33.570312 10.023437 48 0 14.429688 10.023437 33.570312 10.023437 48 0 14.429688 10.023437 33.570312 10.023437 48 0 14.429688 10.023437 33.570312 10.023437 48 0 14.429688 10.023437 33.570312 10.023437 48 0 14.429688 10.023437 33.570312 10.023437 48 0 14.433594 10.019531 33.570312 10.019531 48 0 7.035156 4.925781 15.414062 7.554687 24 7.535156v-16c-6.882812.019531-13.488281-2.71875-18.34375-7.601562-3.121094-3.121094-8.1875-3.121094-11.3125 0-1.132812 1.121093-2.371094 2.132812-3.695312 3.023437l40.9375-122.832031c.816406-2.4375.40625-5.121094-1.09375-7.207032-1.503907-2.089843-3.917969-3.328124-6.492188-3.328124zm-347.054688-198.054688h30.113282l24 48h-30.113282zm-80 0h30.113282l24 48h-30.113282zm-4.945312 64h204.160156l19.203125 24h-23.363281v16h36.152344l19.199218 24h-255.351562zm0 80h300.992188l20.488281 17.941406h-41.480469v16h56v-3.285156l26.722656 23.398438h-362.722656zm360 182.054688c-2.121094 0-4.15625.84375-5.65625 2.34375-10.136719 10.113281-26.546875 10.113281-36.6875 0-3.121094-3.121094-8.1875-3.121094-11.3125 0-10.136719 10.113281-26.546875 10.113281-36.6875 0-3.121094-3.121094-8.1875-3.121094-11.3125 0-10.136719 10.113281-26.546875 10.113281-36.6875 0-3.121094-3.121094-8.1875-3.121094-11.3125 0-10.136719 10.113281-26.546875 10.113281-36.6875 0-3.121094-3.121094-8.1875-3.121094-11.3125 0-10.136719 10.113281-26.546875 10.113281-36.6875 0-3.121094-3.121094-8.1875-3.121094-11.3125 0-10.136719 10.113281-26.546875 10.113281-36.6875 0-3.121094-3.121094-8.1875-3.121094-11.3125 0-10.136719 10.113281-26.546875 10.113281-36.6875 0-3.121094-3.121094-8.1875-3.121094-11.3125 0-10.136719 10.113281-26.546875 10.113281-36.6875 0l-.253906-2.335938h402.167968l-3.199218 9.601562c-5.566406-.742187-10.738282-3.285156-14.722656-7.242187-1.492188-1.507813-3.523438-2.359375-5.648438-2.367187zm28.90625-16h-409.296875l-10.671875-96h452zm0 0"/><path d="m392 270.554688c0 13.253906 10.746094 24 24 24 13.257812 0 24-10.746094 24-24 0-13.253907-10.742188-24-24-24-13.253906 0-24 10.746093-24 24zm32 0c0 4.417968-3.582031 8-8 8s-8-3.582032-8-8c0-4.417969 3.582031-8 8-8s8 3.582031 8 8zm0 0"/><path d="m64 104.5h16v16h-16zm0 0"/><path d="m96 104.5h16v16h-16zm0 0"/><path d="m128 104.5h104v16h-104zm0 0"/><path d="m64 178.441406h80v16h-80zm0 0"/><path d="m160 178.441406h16v16h-16zm0 0"/><path d="m192 178.441406h16v16h-16zm0 0"/><path d="m224 178.441406h88v16h-88zm0 0"/><path d="m72 392.957031c14.429688 10.023438 33.570312 10.023438 48 0 14.429688 10.023438 33.570312 10.023438 48 0 14.429688 10.023438 33.570312 10.023438 48 0 14.429688 10.023438 33.570312 10.023438 48 0 14.429688 10.023438 33.570312 10.023438 48 0 14.429688 10.023438 33.570312 10.023438 48 0 14.429688 10.023438 33.570312 10.023438 48 0 14.429688 10.023438 33.574219 10.023438 48 0 7.03125 4.925781 15.414062 7.5625 24 7.542969v-16c-6.882812.019531-13.488281-2.71875-18.34375-7.601562-3.121094-3.121094-8.1875-3.121094-11.3125 0-10.136719 10.113281-26.546875 10.113281-36.6875 0-3.121094-3.121094-8.1875-3.121094-11.3125 0-10.136719 10.113281-26.546875 10.113281-36.6875 0-3.121094-3.121094-8.1875-3.121094-11.3125 0-10.136719 10.113281-26.546875 10.113281-36.6875 0-3.121094-3.121094-8.1875-3.121094-11.3125 0-10.136719 10.113281-26.546875 10.113281-36.6875 0-3.121094-3.121094-8.1875-3.121094-11.3125 0-10.136719 10.113281-26.546875 10.113281-36.6875 0-3.121094-3.121094-8.1875-3.121094-11.3125 0-10.136719 10.113281-26.546875 10.113281-36.6875 0-3.121094-3.121094-8.1875-3.121094-11.3125 0-10.136719 10.113281-26.546875 10.113281-36.6875 0-3.121094-3.121094-8.1875-3.121094-11.3125 0-10.136719 10.113281-26.546875 10.113281-36.6875 0-3.121094-3.121094-8.1875-3.121094-11.3125 0-10.136719 10.113281-26.546875 10.113281-36.6875 0-3.175781-2.996094-8.136719-2.996094-11.3125 0-4.851562 4.882812-11.457031 7.621093-18.34375 7.601562v16c8.585938.019531 16.96875-2.609375 24-7.535156 14.433594 10.023437 33.574219 10.019531 48-.007813zm0 0"/></svg>