<svg height="480pt" viewBox="0 -19 480 479" width="480pt" xmlns="http://www.w3.org/2000/svg"><path d="m8 440.5h464c4.417969 0 8-3.582031 8-8v-176c0-4.417969-3.582031-8-8-8h-64v-192c0-.167969-.089844-.3125-.097656-.480469-.046875-.726562-.191406-1.441406-.429688-2.128906-.078125-.253906-.167968-.503906-.273437-.75-.375-.828125-.882813-1.589844-1.511719-2.25l-.046875-.054687-48-48c-1.496094-1.492188-3.527344-2.332032-5.640625-2.335938h-224c-2.121094 0-4.15625.84375-5.65625 2.34375l-48 48-.046875.054688c-.628906.660156-1.136719 1.421874-1.511719 2.25-.101562.246093-.191406.496093-.265625.75-.238281.683593-.382812 1.398437-.429687 2.121093 0 .175781-.097656.320313-.097656.488281v191.992188h-63.992188c-4.417969 0-8 3.582031-8 8v176c0 4.417969 3.582031 8 8 8zm8-64h16v16h-16zm72-120v-192h304v360h-104v-32c0-26.507812-21.492188-48-48-48s-48 21.492188-48 48v32h-104zm120 168v-32c0-17.671875 14.328125-32 32-32s32 14.328125 32 32v32zm256-32h-16v-16h16zm0-64h-16v-16h16zm0-64v32h-24c-4.417969 0-8 3.582031-8 8v32c0 4.417969 3.582031 8 8 8h24v16h-24c-4.417969 0-8 3.582031-8 8v32c0 4.417969 3.582031 8 8 8h24v16h-56v-160zm-332.6875-248h217.375l32 32h-281.375zm-59.3125 248v160h-56v-16h24c4.417969 0 8-3.582031 8-8v-32c0-4.417969-3.582031-8-8-8h-24v-16h24c4.417969 0 8-3.582031 8-8v-32c0-4.417969-3.582031-8-8-8h-24v-32zm-56 48h16v16h-16zm0 0"/><path d="m152 280.5h-40c-4.417969 0-8 3.582031-8 8v40c0 4.417969 3.582031 8 8 8h40c4.417969 0 8-3.582031 8-8v-40c0-4.417969-3.582031-8-8-8zm-8 40h-24v-24h24zm0 0"/><path d="m152 352.5h-40c-4.417969 0-8 3.582031-8 8v40c0 4.417969 3.582031 8 8 8h40c4.417969 0 8-3.582031 8-8v-40c0-4.417969-3.582031-8-8-8zm-8 40h-24v-24h24zm0 0"/><path d="m368 352.5h-40c-4.417969 0-8 3.582031-8 8v40c0 4.417969 3.582031 8 8 8h40c4.417969 0 8-3.582031 8-8v-40c0-4.417969-3.582031-8-8-8zm-8 40h-24v-24h24zm0 0"/><path d="m224 336.5c4.417969 0 8-3.582031 8-8v-40c0-4.417969-3.582031-8-8-8h-40c-4.417969 0-8 3.582031-8 8v40c0 4.417969 3.582031 8 8 8zm-32-40h24v24h-24zm0 0"/><path d="m296 280.5h-40c-4.417969 0-8 3.582031-8 8v40c0 4.417969 3.582031 8 8 8h40c4.417969 0 8-3.582031 8-8v-40c0-4.417969-3.582031-8-8-8zm-8 40h-24v-24h24zm0 0"/><path d="m368 280.5h-40c-4.417969 0-8 3.582031-8 8v40c0 4.417969 3.582031 8 8 8h40c4.417969 0 8-3.582031 8-8v-40c0-4.417969-3.582031-8-8-8zm-8 40h-24v-24h24zm0 0"/><path d="m152 208.5h-40c-4.417969 0-8 3.582031-8 8v40c0 4.417969 3.582031 8 8 8h40c4.417969 0 8-3.582031 8-8v-40c0-4.417969-3.582031-8-8-8zm-8 40h-24v-24h24zm0 0"/><path d="m224 208.5h-40c-4.417969 0-8 3.582031-8 8v40c0 4.417969 3.582031 8 8 8h40c4.417969 0 8-3.582031 8-8v-40c0-4.417969-3.582031-8-8-8zm-8 40h-24v-24h24zm0 0"/><path d="m296 208.5h-40c-4.417969 0-8 3.582031-8 8v40c0 4.417969 3.582031 8 8 8h40c4.417969 0 8-3.582031 8-8v-40c0-4.417969-3.582031-8-8-8zm-8 40h-24v-24h24zm0 0"/><path d="m320 216.5v40c0 4.417969 3.582031 8 8 8h40c4.417969 0 8-3.582031 8-8v-40c0-4.417969-3.582031-8-8-8h-40c-4.417969 0-8 3.582031-8 8zm16 8h24v24h-24zm0 0"/><path d="m216.929688 118.4375-2.707032 15.78125c-.511718 3.003906.722656 6.035156 3.183594 7.824219 2.464844 1.789062 5.730469 2.027343 8.425781.609375l14.167969-7.457032 14.167969 7.457032c2.695312 1.417968 5.960937 1.179687 8.425781-.609375 2.460938-1.789063 3.695312-4.820313 3.183594-7.824219l-2.707032-15.78125 11.464844-11.203125c2.152344-2.125 2.921875-5.289063 1.984375-8.167969-.9375-2.875-3.421875-4.980468-6.414062-5.429687l-15.847657-2.304688-7.058593-14.367187c-1.492188-2.542969-4.21875-4.105469-7.167969-4.105469-2.945312 0-5.675781 1.5625-7.167969 4.105469l-7.085937 14.351562-15.847656 2.304688c-3.011719.4375-5.511719 2.546875-6.453126 5.441406-.941406 2.894531-.15625 6.070312 2.019532 8.199219zm15.269531-11.898438c2.605469-.378906 4.859375-2.015624 6.023437-4.375l1.777344-3.585937 1.777344 3.585937c1.164062 2.359376 3.417968 3.996094 6.023437 4.375l3.960938.578126-2.875 2.796874c-1.882813 1.839844-2.742188 4.488282-2.292969 7.082032l.671875 3.945312-3.539063-1.867187c-2.332031-1.226563-5.121093-1.226563-7.453124 0l-3.539063 1.867187.671875-3.945312c.449219-2.59375-.410156-5.242188-2.292969-7.082032l-2.875-2.796874zm0 0"/><path d="m178.726562 161.515625-2.398437-14.070313 10.230469-9.976562c2.152344-2.128906 2.921875-5.289062 1.984375-8.164062-.933594-2.878907-3.414063-4.984376-6.40625-5.4375l-14.136719-2.101563-6.328125-12.800781c-1.496094-2.542969-4.222656-4.105469-7.171875-4.105469s-5.675781 1.5625-7.171875 4.105469l-6.320313 12.800781-14.144531 2.0625c-2.992187.453125-5.472656 2.558594-6.40625 5.433594-.9375 2.878906-.167969 6.039062 1.984375 8.167969l10.230469 9.972656-2.398437 14.074218c-.515626 3 .71875 6.035157 3.183593 7.824219 2.460938 1.789063 5.726563 2.023438 8.421875.605469l12.640625-6.636719 12.648438 6.636719c2.695312 1.414062 5.957031 1.175781 8.417969-.613281 2.460937-1.789063 3.695312-4.816407 3.183593-7.816407zm-16.589843-22.617187c-1.886719 1.839843-2.75 4.484374-2.304688 7.082031l.382813 2.238281-2.023438-1.054688c-2.328125-1.222656-5.109375-1.222656-7.4375 0l-2.011718 1.054688.386718-2.238281c.445313-2.59375-.414062-5.242188-2.296875-7.082031l-1.648437-1.597657 2.273437-.328125c2.601563-.382812 4.851563-2.019531 6.015625-4.375l1.007813-2.050781 1.015625 2.050781c1.164062 2.355469 3.40625 3.992188 6.007812 4.375l2.273438.328125zm0 0"/><path d="m300.648438 147.445312-2.402344 14.070313c-.511719 3 .722656 6.035156 3.183594 7.824219 2.464843 1.789062 5.730468 2.023437 8.425781.609375l12.640625-6.640625 12.648437 6.640625c2.695313 1.410156 5.957031 1.171875 8.417969-.617188 2.460938-1.789062 3.695312-4.816406 3.179688-7.816406l-2.398438-14.070313 10.230469-9.976562c2.15625-2.128906 2.921875-5.289062 1.984375-8.164062-.933594-2.878907-3.414063-4.984376-6.40625-5.4375l-14.152344-2.101563-6.328125-12.800781c-1.496094-2.542969-4.222656-4.105469-7.171875-4.105469s-5.675781 1.5625-7.171875 4.105469l-6.320313 12.800781-14.144531 2.0625c-2.992187.453125-5.472656 2.558594-6.40625 5.433594-.9375 2.878906-.167969 6.039062 1.984375 8.167969zm14.808593-10.449218c2.601563-.382813 4.851563-2.015625 6.015625-4.375l1.007813-2.050782 1.015625 2.050782c1.164062 2.355468 3.40625 3.992187 6.007812 4.375l2.273438.328125-1.601563 1.601562c-1.886719 1.835938-2.746093 4.484375-2.304687 7.078125l.386718 2.238282-2.027343-1.054688c-2.328125-1.222656-5.109375-1.222656-7.4375 0l-2.007813 1.054688.382813-2.238282c.445312-2.59375-.414063-5.242187-2.296875-7.078125l-1.648438-1.601562zm0 0"/></svg>