<svg height="480pt" viewBox="0 -80 480 480" width="480pt" xmlns="http://www.w3.org/2000/svg"><path d="m384 256c-8.835938 0-16 7.164062-16 16s7.164062 16 16 16 16-7.164062 16-16-7.164062-16-16-16zm0 24v-8zm0 0"/><path d="m96 256c-8.835938 0-16 7.164062-16 16s7.164062 16 16 16 16-7.164062 16-16-7.164062-16-16-16zm0 24v-8zm0 0"/><path d="m472 32h-72v-8c0-13.253906-10.746094-24-24-24h-40c-13.253906 0-24 10.746094-24 24v8h-154v-8c0-13.253906-10.746094-24-24-24h-38c-13.253906 0-24 10.746094-24 24v8h-64c-4.417969 0-8 3.582031-8 8v240c0 4.417969 3.582031 8 8 8h42.800781c2.097657 5.902344 5.332031 11.339844 9.519531 16h-60.320312v16h480v-16h-60.320312c4.1875-4.660156 7.421874-10.097656 9.519531-16h42.800781c4.417969 0 8-3.582031 8-8v-240c0-4.417969-3.582031-8-8-8zm-8 136h-40v-88h40zm-136-144c0-4.417969 3.582031-8 8-8h40c4.417969 0 8 3.582031 8 8v8h-56zm-240 0c0-4.417969 3.582031-8 8-8h38c4.417969 0 8 3.582031 8 8v8h-54zm-24 248c0-17.671875 14.328125-32 32-32s32 14.328125 32 32-14.328125 32-32 32-32-14.328125-32-32zm77.199219 16h197.601562c2.097657 5.902344 5.332031 11.339844 9.519531 16h-216.640624c4.1875-4.660156 7.421874-10.097656 9.519531-16zm146.800781-48h-64v-16h64zm0-32h-64v-136h64zm-64 48h64v16h-64zm128 16c0-17.671875 14.328125-32 32-32s32 14.328125 32 32-14.328125 32-32 32-32-14.328125-32-32zm80 0c0-26.507812-21.492188-48-48-48s-48 21.492188-48 48h-32v-208c0-4.417969-3.582031-8-8-8h-80c-4.417969 0-8 3.582031-8 8v208h-64c0-26.507812-21.492188-48-48-48s-48 21.492188-48 48h-32v-224h448v16h-48c-4.417969 0-8 3.582031-8 8v104c0 4.417969 3.582031 8 8 8h48v8h-24c-4.417969 0-8 3.582031-8 8v32c0 4.417969 3.582031 8 8 8h24v32zm32-48h-16v-16h16zm0 0"/><path d="m96 56h-56c-4.417969 0-8 3.582031-8 8v88c0 4.417969 3.582031 8 8 8h56c4.417969 0 8-3.582031 8-8v-88c0-4.417969-3.582031-8-8-8zm-8 88h-40v-72h40zm0 0"/><path d="m184 56h-56c-4.417969 0-8 3.582031-8 8v88c0 4.417969 3.582031 8 8 8h56c4.417969 0 8-3.582031 8-8v-88c0-4.417969-3.582031-8-8-8zm-8 88h-40v-72h40zm0 0"/><path d="m384 56h-56c-4.417969 0-8 3.582031-8 8v88c0 4.417969 3.582031 8 8 8h56c4.417969 0 8-3.582031 8-8v-88c0-4.417969-3.582031-8-8-8zm-8 88h-40v-72h40zm0 0"/><path d="m32 176h64v16h-64zm0 0"/><path d="m64 200h32v16h-32zm0 0"/><path d="m328 176h64v16h-64zm0 0"/><path d="m360 200h32v16h-32zm0 0"/></svg>