<svg height="480pt" viewBox="-4 0 480 480.00008" width="480pt" xmlns="http://www.w3.org/2000/svg"><path d="m120.917969 440h303.90625l-33.53125-352h-312.277344zm161.503906-256 8.578125 72h-87.875l-8.566406-72zm-89.765625-16-7.625-64h87.886719l7.617187 64zm20.964844 176-8.574219-72h87.871094l8.570312 72zm89.785156 16 7.625 64h-87.90625l-7.613281-64zm-186.375-88h71.886719l8.570312 72h-71.867187zm192 0h83.71875l6.855469 72h-81.984375zm82.191406-16h-84.097656l-8.566406-72h85.808594zm-204.207031 0h-71.890625l-8.574219-72h71.871094zm-59.511719 104h71.886719l7.625 64h-71.890625zm199.621094 64-7.613281-64h81.597656l6.097656 64zm55.722656-256h-86.191406l-7.625-64h87.71875zm-213.929687-64 7.617187 64h-71.886718l-7.617188-64zm0 0"/><path d="m360.023438 0c-22.082032.0273438-39.972657 17.917969-40 40h-48c0-22.089844-17.910157-40-40-40-22.09375 0-40 17.910156-40 40h-48c0-22.089844-17.910157-40-40-40-22.09375 0-40 17.910156-40 40h-24.082032c-1.050781.011719-2.089844.238281-3.054687.664062-.230469.097657-.398438.28125-.625.398438-.707031.363281-1.351563.832031-1.917969 1.386719-.074219.070312-.167969.09375-.234375.167969-.152344.230468-.292969.472656-.421875.71875-.410156.523437-.75 1.101562-1.007812 1.710937-.152344.410156-.265626.835937-.34375 1.265625-.128907.355469-.234376.71875-.3125 1.085938l-32.0000005 424c-.1679685 2.226562.6015625 4.417968 2.1171875 6.050781 1.519531 1.632812 3.652344 2.558593 5.882813 2.550781h456c2.257812.011719 4.414062-.933594 5.9375-2.601562 1.527343-1.667969 2.273437-3.902344 2.0625-6.152344l-40-424c-.390626-4.121094-3.859376-7.265625-8-7.246094h-24c-.027344-22.082031-17.921876-39.9726562-40-40zm-128 16c13.253906 0 24 10.746094 24 24h-48c0-13.253906 10.746093-24 24-24zm-128 0c13.253906 0 24 10.746094 24 24h-48c0-13.253906 10.746093-24 24-24zm-87.375 448 24.253906-321.433594 30.320312 321.433594zm400.09375-408 38.480468 408h-367.921875l-38.476562-408h72.957031c-4.511719 5.070312-10.972656 7.980469-17.757812 8v16c15.886718-.019531 30.253906-9.441406 36.605468-24h109.152344c-4.511719 5.070312-10.972656 7.980469-17.757812 8v16c15.886718-.019531 30.253906-9.441406 36.605468-24h109.152344c-4.511719 5.070312-10.972656 7.980469-17.757812 8v16c15.886718-.019531 30.253906-9.441406 36.605468-24zm-80.71875-16c0-13.253906 10.746093-24 24-24 13.253906 0 24 10.746094 24 24zm0 0"/></svg>