<svg height="480pt" viewBox="0 -56 480 480" width="480pt" xmlns="http://www.w3.org/2000/svg"><path d="m256 128c-48.601562 0-88 39.398438-88 88s39.398438 88 88 88 88-39.398438 88-88c-.058594-48.578125-39.421875-87.941406-88-88zm0 160c-39.765625 0-72-32.234375-72-72s32.234375-72 72-72 72 32.234375 72 72c-.042969 39.746094-32.253906 71.957031-72 72zm0 0"/><path d="m312 216c-.3125-16.953125-6.839844-33.199219-18.34375-45.65625l-11.3125 11.3125c8.535156 9.433594 13.382812 21.625 13.65625 34.34375zm0 0"/><path d="m290.34375 242.34375 11.3125 11.3125c6.085938-5.632812 9.785156-13.382812 10.34375-21.65625l-16-.183594c-.59375 4.0625-2.59375 7.789063-5.65625 10.527344zm0 0"/><path d="m472 64h-8v-32c0-4.417969-3.582031-8-8-8h-64c-4.417969 0-8 3.582031-8 8v32h-19.65625l-41.535156-64h-141.601563l-41.535156 64h-43.671875v-24c0-4.417969-3.582031-8-8-8h-64c-4.417969 0-8 3.582031-8 8v24h-8c-4.417969 0-8 3.582031-8 8v288c0 4.417969 3.582031 8 8 8h464c4.417969 0 8-3.582031 8-8v-288c0-4.417969-3.582031-8-8-8zm-72-24h48v24h-48zm-210.121094-24h124.242188l31.152344 48h-186.546876zm-157.878906 32h48v16h-48zm-16 304v-272h72v272zm448 0h-360v-272h360zm0 0"/><path d="m440 96h-56c-4.417969 0-8 3.582031-8 8v48c0 4.417969 3.582031 8 8 8h56c4.417969 0 8-3.582031 8-8v-48c0-4.417969-3.582031-8-8-8zm-8 48h-40v-32h40zm0 0"/><path d="m256 96c-66.273438 0-120 53.726562-120 120s53.726562 120 120 120 120-53.726562 120-120c-.074219-66.242188-53.757812-119.925781-120-120zm0 224c-57.4375 0-104-46.5625-104-104s46.5625-104 104-104 104 46.5625 104 104c-.066406 57.410156-46.589844 103.933594-104 104zm0 0"/><path d="m376 288c-13.253906 0-24 10.746094-24 24s10.746094 24 24 24 24-10.746094 24-24-10.746094-24-24-24zm0 32c-4.417969 0-8-3.582031-8-8s3.582031-8 8-8 8 3.582031 8 8-3.582031 8-8 8zm0 0"/><path d="m200 32h104v16h-104zm0 0"/></svg>