<svg height="480pt" viewBox="0 -80 480 480" width="480pt" xmlns="http://www.w3.org/2000/svg"><path d="m401.222656 112-22.398437-1.152344-39.945313-44.34375c-19.167968-21.273437-46.25-33.714844-74.878906-34.398437v-24.105469c0-4.417969-3.582031-8-8-8h-88c-4.417969 0-8 3.582031-8 8v25.886719c-14.585938 2.269531-28.472656 7.8125-40.609375 16.21875-14.890625 9.679687-26.144531 24.03125-32 40.796875l-8.460937 21.097656h-18.402344c-31.066406.039062-57.070313 23.578125-60.191406 54.488281-.160157.492188-.273438.996094-.335938 1.511719v80c0 4.417969 3.582031 8 8 8h48c.011719 18.394531 7.960938 35.890625 21.808594 48h-77.808594v16h480v-16h-61.808594c13.847656-12.109375 21.796875-29.605469 21.808594-48h32c4.417969 0 8-3.582031 8-8v-56.800781c0-43.574219-35.199219-78.964844-78.777344-79.199219zm54.464844 48h-8.6875c-16.722656-.035156-30.398438-13.332031-30.902344-30.046875 16.738282 4.203125 31.035156 15.054687 39.589844 30.046875zm-279.6875-144h72v16h-72zm-136 160v16h-24v-16zm32 80c0-26.507812 21.492188-48 48-48s48 21.492188 48 48-21.492188 48-48 48c-26.5-.027344-47.972656-21.5-48-48zm90.191406 48c13.847656-12.109375 21.796875-29.605469 21.808594-48h128c.011719 18.394531 7.960938 35.890625 21.808594 48zm213.808594 0c-26.507812 0-48-21.492188-48-48s21.492188-48 48-48 48 21.492188 48 48c-.027344 26.5-21.5 47.972656-48 48zm88-64h-26.105469c-7.253906-28.253906-32.722656-48.011719-61.894531-48.011719s-54.640625 19.757813-61.894531 48.011719h-132.210938c-7.253906-28.253906-32.722656-48.011719-61.894531-48.011719s-54.640625 19.757813-61.894531 48.011719h-42.105469v-32h32c4.417969 0 8-3.582031 8-8v-32c0-4.417969-3.582031-8-8-8h-30.183594c5.566406-18.941406 22.933594-31.964844 42.679688-32h23.839844c3.273437 0 6.21875-1.992188 7.433593-5.03125l10.566407-26.402344c4.707031-13.6875 13.894531-25.390625 26.070312-33.214844 13.125-9.164062 28.695312-14.179687 44.699219-14.398437l87.429687-.953125h.898438c25.015625-.003906 48.855468 10.609375 65.597656 29.199219l42.113281 46.800781c1.417969 1.578125 3.40625 2.527344 5.527344 2.640625l25.328125 1.359375v1.039062c.054688 25.929688 21.070312 46.929688 47 46.960938h15.070312c1.261719 4.96875 1.910157 10.074219 1.929688 15.199219zm0 0"/><path d="m240 128h71.128906c6.871094.097656 13.152344-3.878906 16-10.136719 2.78125-6.015625 1.753906-13.105469-2.625-18.078125-19.152344-22.097656-37.304687-35.785156-68.503906-35.785156h-16c-4.417969 0-8 3.582031-8 8v48c0 4.417969 3.582031 8 8 8zm8-48h8c25.375 0 39.390625 10.632812 56.359375 30.246094.273437.246094.347656.644531.175781.96875-.253906.539062-.816406.859375-1.40625.800781h-63.128906zm0 0"/><path d="m120 128h72c4.417969 0 8-3.582031 8-8v-48c0-4.417969-3.582031-8-8-8h-31.03125c-27.042969.003906-48.964844 21.925781-48.96875 48.96875v7.03125c0 4.417969 3.582031 8 8 8zm17.65625-38.34375c6.199219-6.160156 14.574219-9.628906 23.3125-9.65625h23.03125v32h-56c.226562-8.414062 3.683594-16.414062 9.65625-22.34375zm0 0"/><path d="m120 224c-17.671875 0-32 14.328125-32 32s14.328125 32 32 32 32-14.328125 32-32-14.328125-32-32-32zm0 48c-8.835938 0-16-7.164062-16-16s7.164062-16 16-16 16 7.164062 16 16-7.164062 16-16 16zm0 0"/><path d="m376 224c-17.671875 0-32 14.328125-32 32s14.328125 32 32 32 32-14.328125 32-32-14.328125-32-32-32zm0 48c-8.835938 0-16-7.164062-16-16s7.164062-16 16-16 16 7.164062 16 16-7.164062 16-16 16zm0 0"/><path d="m88 136h16v16h-16zm0 0"/><path d="m104 152h16v16h-16zm0 0"/><path d="m120 136h16v16h-16zm0 0"/><path d="m136 152h16v16h-16zm0 0"/><path d="m152 136h16v16h-16zm0 0"/><path d="m168 152h16v16h-16zm0 0"/><path d="m184 136h16v16h-16zm0 0"/><path d="m200 152h16v16h-16zm0 0"/><path d="m216 136h16v16h-16zm0 0"/><path d="m232 152h16v16h-16zm0 0"/><path d="m248 136h16v16h-16zm0 0"/><path d="m264 152h16v16h-16zm0 0"/><path d="m280 136h16v16h-16zm0 0"/><path d="m296 152h16v16h-16zm0 0"/><path d="m312 136h16v16h-16zm0 0"/><path d="m328 152h16v16h-16zm0 0"/><path d="m344 136h16v16h-16zm0 0"/><path d="m360 152h16v16h-16zm0 0"/><path d="m376 136h16v16h-16zm0 0"/><path d="m72 152h16v16h-16zm0 0"/><path d="m56 136h16v16h-16zm0 0"/></svg>