<svg height="480pt" viewBox="0 0 480 480" width="480pt" xmlns="http://www.w3.org/2000/svg"><path d="m240 480c132.546875 0 240-107.453125 240-240s-107.453125-240-240-240-240 107.453125-240 240c.148438 132.484375 107.515625 239.851562 240 240zm0-464c123.710938 0 224 100.289062 224 224s-100.289062 224-224 224-224-100.289062-224-224c.140625-123.652344 100.347656-223.859375 224-224zm0 0"/><path d="m91.9375 385.902344-3.257812 5.425781 5.425781-3.257813c36.875 36.457032 86.078125 57.769532 137.894531 59.730469v.199219h16v-.199219c108.511719-4.304687 195.496094-91.289062 199.800781-199.800781h.199219v-16h-.199219c-1.964843-51.820312-23.277343-101.027344-59.738281-137.902344l3.257812-5.425781-5.425781 3.257813c-36.875-36.457032-86.078125-57.769532-137.894531-59.730469v-.199219h-16v.199219c-108.511719 4.304687-195.496094 91.289062-199.800781 199.800781h-.199219v16h.199219c1.964843 51.820312 23.277343 101.027344 59.738281 137.902344zm-43.738281-137.902344h48.152343c1.628907 29.222656 12.136719 57.253906 30.113282 80.351562l-26 43.328126c-31.792969-33.554688-50.359375-77.492188-52.265625-123.679688zm64.207031-16c4.101562-64.273438 55.320312-115.492188 119.59375-119.59375v15.59375h16v-15.648438c23.5625 1.457032 46.265625 9.398438 65.601562 22.945313l-111.433593 66.871094-66.871094 111.433593c-13.550781-19.332031-21.492187-42.039062-22.945313-65.601562h15.648438v-16zm255.203125 16c-4.101563 64.28125-55.328125 115.5-119.609375 119.59375v-15.59375h-16v15.648438c-23.5625-1.453126-46.265625-9.390626-65.601562-22.9375l111.464843-66.878907 66.839844-111.433593c13.546875 19.335937 21.484375 42.039062 22.945313 65.601562h-15.648438v16zm-158.007813-27.105469 8.796876 8.800781c-1.566407 3.210938-2.386719 6.734376-2.398438 10.304688 0 13.253906 10.746094 24 24 24 3.5625-.015625 7.078125-.835938 10.28125-2.398438l8.796875 8.796876-123.757813 74.273437zm30.398438 27.105469c-4.417969 0-8-3.582031-8-8s3.582031-8 8-8 8 3.582031 8 8-3.582031 8-8 8zm30.398438 11.105469-8.796876-8.800781c1.566407-3.210938 2.386719-6.734376 2.398438-10.304688 0-13.253906-10.746094-24-24-24-3.5625.015625-7.078125.835938-10.28125 2.398438l-8.796875-8.796876 123.773437-74.265624zm-162.078126 120.429687 43.328126-25.992187c23.101562 17.972656 51.128906 28.472656 80.351562 30.105469v48.152343c-46.1875-1.90625-90.121094-20.472656-123.679688-52.265625zm139.679688 52.265625v-48.207031c73.105469-4.136719 131.457031-62.488281 135.59375-135.59375h48.207031c-4.277343 99.683594-84.117187 179.523438-183.800781 183.800781zm183.800781-199.800781h-48.152343c-1.628907-29.222656-12.136719-57.253906-30.113282-80.351562l26-43.328126c31.792969 33.554688 50.359375 77.492188 52.265625 123.679688zm-60.121093-131.535156-43.328126 25.992187c-23.101562-17.972656-51.128906-28.472656-80.351562-30.105469v-48.152343c46.1875 1.90625 90.121094 20.472656 123.679688 52.265625zm-139.679688-52.265625v48.207031c-73.105469 4.136719-131.457031 62.488281-135.59375 135.59375h-48.207031c4.277343-99.683594 84.117187-179.523438 183.800781-183.800781zm0 0"/></svg>