<svg height="464pt" viewBox="0 -11 464 463" width="464pt" xmlns="http://www.w3.org/2000/svg"><path d="m365.664062 136.5h-267.328124c-36.621094.035156-66.300782 29.714844-66.335938 66.335938v62.855468c.03125 25.839844 20.96875 46.777344 46.808594 46.808594h75.863281c12.40625-.03125 24.296875-4.957031 33.097656-13.703125l44.230469-44.242187 40.152344 40.152343c.488281.5625 1.800781 1.945313 3.839844 3.847657l.230468.234374c2.597656 2.570313 5.488282 4.820313 8.617188 6.710938 6.449218 4.648438 14.113281 7.3125 22.054687 7.65625 2.039063.003906 4.070313-.214844 6.058594-.65625h72.238281c25.839844-.03125 46.777344-20.96875 46.808594-46.808594v-62.679687c.332031-16.214844-5.554688-31.9375-16.449219-43.953125-.375-.398438-.796875-.742188-1.207031-1.132813-12.511719-13.644531-30.167969-21.417969-48.679688-21.425781zm-266.296874 16.59375h41.921874l-93.289062 93.285156v-41.878906c.011719-28.371094 22.996094-51.371094 51.367188-51.40625zm77.089843 134.398438c-5.796875 5.75-13.621093 8.988281-21.785156 9.007812h-75.863281c-15.804688-.046875-28.996094-12.070312-30.503906-27.800781l116.199218-116.199219h168.296875l-89.816406 90.398438-5.328125-5.328126c-3.125-3.121093-8.1875-3.121093-11.3125 0zm135.542969 9.007812h-2.671875c-5.949219-.027344-11.765625-1.765625-16.753906-5.007812-.269531-.191407-.550781-.375-.796875-.566407-1.496094-1.015625-2.898438-2.164062-4.191406-3.425781l-.082032-.070312-33.183594-33.203126 100.976563-101.6875c21.214844.511719 37.160156 6.074219 47.519531 16.457032 8.472656 9.234375 13.179688 21.308594 13.183594 33.839844v18.632812l-75.0625 75.03125zm73.191406 0h-21.597656l52.40625-52.441406v21.601562c-.003906 17.019532-13.789062 30.816406-30.808594 30.839844zm0 0"/><path d="m408 .5h-32c-4.417969 0-8 3.582031-8 8v96.121094c-.800781 0-1.542969-.121094-2.335938-.121094h-267.328124c-54.285157.0625-98.273438 44.050781-98.335938 98.335938v62.855468c.046875 43.503906 35.304688 78.761719 78.808594 78.808594h75.863281c20.914063.0625 40.980469-8.25 55.726563-23.078125l21.601562-21.601563 21.601562 21.601563c14.746094 14.828125 34.8125 23.140625 55.726563 23.078125h58.671875v25.503906c-.007812 8.003906-6.5 14.492188-14.503906 14.496094h-28.886719c-6.355469-14.558594-20.722656-23.980469-36.609375-24h-112c-22.089844 0-40 17.910156-40 40s17.910156 40 40 40h112c8.574219-.027344 16.910156-2.832031 23.753906-8h48.742188c30.636718-.03125 55.46875-24.859375 55.503906-55.496094v-38.785156c29.078125-12.382812 47.964844-40.921875 48-72.527344v-62.855468c-.042969-34.597657-18.273438-66.621094-48-84.320313v-110.015625c0-4.417969-3.582031-8-8-8zm-24 16h16v94.304688c-5.195312-1.960938-10.546875-3.476563-16-4.527344zm-232 384c0-13.253906 10.746094-24 24-24h24v48h-24c-13.253906 0-24-10.746094-24-24zm64 24v-48h32v48zm48 0v-48h24c9.484375-.042969 18.097656 5.53125 21.945312 14.199219 3.847657 8.667969 2.207032 18.792969-4.183593 25.800781h-1.761719v1.761719c-4.375 3.992187-10.078125 6.21875-16 6.238281zm136-47.496094c-.027344 21.804688-17.699219 39.472656-39.503906 39.496094h-35.886719c2.230469-5.039062 3.386719-10.488281 3.390625-16h25.496094c16.839844-.011719 30.484375-13.65625 30.503906-30.496094v-25.503906h1.191406c4.972656-.015625 9.929688-.496094 14.808594-1.441406zm48-174.167968v62.855468c-.035156 34.675782-28.132812 62.773438-62.808594 62.808594h-75.863281c-16.664063.042969-32.65625-6.582031-44.40625-18.398438l-27.265625-27.265624c-3.125-3.121094-8.1875-3.121094-11.3125 0l-27.265625 27.265624c-11.75 11.816407-27.742187 18.441407-44.40625 18.398438h-75.863281c-34.675782-.035156-62.773438-28.132812-62.808594-62.808594v-62.855468c.035156-45.457032 36.878906-82.300782 82.335938-82.335938h267.328124c45.457032.035156 82.300782 36.878906 82.335938 82.335938zm0 0"/></svg>