<svg height="479pt" viewBox="0 -20 479.80339 479" width="479pt" xmlns="http://www.w3.org/2000/svg"><path d="m111.902344 320.402344c0-13.253906-10.746094-24-24-24s-24 10.746094-24 24 10.746094 24 24 24 24-10.746094 24-24zm-32 0c0-4.417969 3.582031-8 8-8 4.417968 0 8 3.582031 8 8 0 4.417968-3.582032 8-8 8-4.417969 0-8-3.582032-8-8zm0 0"/><path d="m194.246094 369.816406c2.289062 2.289063 5.726562 2.972656 8.71875 1.734375 2.988281-1.238281 4.9375-4.152343 4.9375-7.390625v-83.757812c0-3.171875-1.871094-6.042969-4.773438-7.324219-2.902344-1.277344-6.289062-.722656-8.628906 1.417969l-43.757812 40c-1.613282 1.476562-2.550782 3.542968-2.597657 5.726562-.050781 2.183594.796875 4.292969 2.339844 5.835938zm-2.34375-71.261718v46.296874l-24.183594-24.1875zm0 0"/><path d="m26.070312 313.242188c-2.574218 2.742187-2.890624 6.90625-.761718 10.007812 3.082031 4.472656 76.496094 109.414062 184.585937 116.695312 3.894531.265626 7.773438.390626 11.664063.390626 56.632812 0 111.664062-27.917969 163.832031-83.125l40.855469 40.847656c1.769531 1.765625 4.261718 2.605468 6.742187 2.265625 2.476563-.335938 4.652344-1.816407 5.882813-3.996094 26.410156-46.515625 26.746094-103.414063.886718-150.238281l-.800781-1.527344c-1.210937-2.207031-3.386719-3.714844-5.878906-4.074219-2.496094-.371093-5.019531.46875-6.792969 2.265625l-39.535156 39.488282c-30.273438-30.039063-87.160156-73.839844-161.367188-73.839844h-.800781c-66.71875.28125-133.480469 35.550781-198.511719 104.839844zm198.566407-88.839844h.738281c73.238281 0 128.855469 46.773437 155.535156 74.726562 1.484375 1.558594 3.535156 2.453125 5.6875 2.480469 2.140625-.050781 4.1875-.886719 5.753906-2.34375l37.453126-37.457031c17.460937 37.113281 17.460937 80.078125 0 117.191406l-38.984376-38.980469c-1.527343-1.578125-3.652343-2.429687-5.847656-2.347656-2.1875.058594-4.257812 1.003906-5.734375 2.617187-53.929687 59.394532-110.535156 87.617188-168.183593 83.695313-35.5625-3.328125-69.550782-16.242187-98.351563-37.367187 17.5-17.679688 26.167969-42.265626 23.628906-67.015626-2.820312-21.34375-11.367187-41.523437-24.734375-58.398437 33.339844-22.914063 72.597656-35.695313 113.039063-36.800781zm-126.335938 45.800781c11.867188 14.675781 19.515625 32.304687 22.121094 51 2.003906 20.808594-5.613281 41.394531-20.679687 55.886719-21.414063-16.847656-40.699219-36.230469-57.441407-57.726563 17.144531-18.046875 35.886719-34.5 56-49.160156zm0 0"/><path d="m21.246094 97.058594c.835937.785156 1.722656 1.511718 2.65625 2.183594v113.199218c.046875 9.847656 4.089844 19.253906 11.199218 26.0625 6.664063 6.378906 15.539063 9.925782 24.761719 9.898438 2.90625-.007813 5.800781-.347656 8.628907-1.023438 11.570312-2.667968 20.972656-11.0625 24.929687-22.257812l10.03125-28.839844c.984375-2.851562.277344-6.015625-1.828125-8.179688-2.101562-2.164062-5.242188-2.960937-8.125-2.058593l-24 7.664062 4.867188 15.238281 8.75-2.792968-4.800782 13.722656c-2.144531 6.078125-7.292968 10.605469-13.597656 11.949219-5.964844 1.457031-12.265625.097656-17.105469-3.679688-4.835937-3.777343-7.679687-9.5625-7.710937-15.703125v-107.65625c7 .019532 13.71875-2.761718 18.65625-7.726562l6-6c4.058594-4.050782 10.628906-4.050782 14.6875 0l6 6c10.308594 10.292968 27.003906 10.292968 37.3125 0l6-6c4.058594-4.050782 10.628906-4.050782 14.6875 0l6 6c10.308594 10.292968 27.003906 10.292968 37.3125 0l6-6c4.058594-4.050782 10.628906-4.050782 14.6875 0l6 6c10.308594 10.292968 27.003906 10.292968 37.3125 0l6-6c4.109375-3.921875 10.578125-3.921875 14.6875 0l6 6c10.441406 9.96875 26.871094 9.96875 37.3125 0l6-6c4.058594-4.050782 10.628906-4.050782 14.6875 0l6 6c10.308594 10.292968 27.003906 10.292968 37.3125 0l6-6c4.109375-3.921875 10.578125-3.921875 14.6875 0l6 6c10.308594 10.292968 27.003906 10.292968 37.3125 0l6-6c4.058594-4.050782 10.628906-4.050782 14.6875 0l3 3c3.136718 3.03125 8.128906 2.988281 11.214844-.097656 3.085937-3.085938 3.128906-8.078126.097656-11.214844l-3-3c-10.308594-10.292969-27.003906-10.292969-37.3125 0l-6 6c-4.058594 4.046875-10.628906 4.046875-14.6875 0l-6-6c-10.308594-10.292969-27.003906-10.292969-37.3125 0l-6 6c-4.058594 4.046875-10.628906 4.046875-14.6875 0l-6-6c-10.308594-10.292969-27.003906-10.292969-37.3125 0l-6 6c-4.109375 3.921875-10.578125 3.921875-14.6875 0l-6-6c-10.441406-9.96875-26.871094-9.96875-37.3125 0l-6 6c-4.058594 4.046875-10.628906 4.046875-14.6875 0l-6-6c-10.308594-10.292969-27.003906-10.292969-37.3125 0l-6 6c-4.058594 4.046875-10.628906 4.046875-14.6875 0l-6-6c-10.308594-10.292969-27.003906-10.292969-37.3125 0l-6 6c-4.109375 3.921875-10.578125 3.921875-14.6875 0l-6-6c-10.308594-10.292969-27.003906-10.292969-37.3125 0l-6 6c-1.945313 1.949218-4.589844 3.039062-7.34375 3.03125v-88.375h-16v76.6875l-10.34375-10.34375c-3.140625-3.03125-8.128906-2.988282-11.214844.097656s-3.128906 8.074219-.097656 11.214844zm0 0"/><path d="m287.558594 168.671875 6-6c4.105468-3.925781 10.578125-3.925781 14.6875 0l5.992187 6c10.441407 9.96875 26.875 9.96875 37.320313 0l6-6c4.105468-3.925781 10.578125-3.925781 14.6875 0l5.992187 6c10.308594 10.300781 27.011719 10.300781 37.320313 0l6-6c2.078125-2.007813 2.914062-4.980469 2.179687-7.777344-.730469-2.796875-2.914062-4.980469-5.710937-5.714843-2.796875-.730469-5.773438.101562-7.78125 2.183593l-6.007813 6c-4.105469 3.925781-10.574219 3.925781-14.679687 0l-6-6c-10.308594-10.296875-27.003906-10.296875-37.3125 0l-6.007813 6c-4.105469 3.925781-10.574219 3.925781-14.679687 0l-6-6c-10.441406-9.96875-26.871094-9.96875-37.3125 0l-6.007813 6c-4.101562 3.925781-10.570312 3.925781-14.671875 0-3.125-3.128906-8.191406-3.132812-11.320312-.007812-3.128906 3.121093-3.132813 8.191406-.007813 11.316406 10.441407 9.96875 26.875 9.96875 37.320313 0zm0 0"/><path d="m140.902344 152.402344c7 .019531 13.71875-2.765625 18.65625-7.730469l6-6c4.105468-3.925781 10.578125-3.925781 14.6875 0l6 6c9.296875 9.222656 23.933594 10.273437 34.457031 2.480469 3.53125-2.648438 4.25-7.664063 1.597656-11.199219-2.648437-3.535156-7.664062-4.25-11.199219-1.597656-4.136718 3.074219-9.902343 2.65625-13.550781-.984375l-6-6c-10.308593-10.296875-27.007812-10.296875-37.3125 0l-6.007812 6c-4.105469 3.925781-10.574219 3.925781-14.679688 0l-6-6c-10.308593-10.296875-27.007812-10.296875-37.3125 0l-6 6c-3.03125 3.136718-2.988281 8.128906.097657 11.214844 3.085937 3.085937 8.074218 3.128906 11.214843.097656l6-6c4.105469-3.929688 10.578125-3.929688 14.6875 0l5.992188 6c4.941406 4.960937 11.667969 7.742187 18.671875 7.71875zm0 0"/></svg>