<svg height="479pt" viewBox="-8 0 479 479.86826" width="479pt" xmlns="http://www.w3.org/2000/svg"><path d="m209.910156 95.410156c-2.847656-27.988281-16.652344-53.707031-38.402344-71.546875-21.523437-17.847656-49.34375-26.242187-77.148437-23.277343-58.074219 6.613281-99.808594 59.023437-93.257813 117.101562l35.511719 242.175781c.296875 2.054688 1.382813 3.914063 3.023438 5.183594 7.855469 38.648437 41.742187 66.484375 81.175781 66.679687 2.917969 0 5.828125-.152343 8.730469-.453124 44.011719-4.789063 76.570312-43.207032 74.070312-87.410157.066407-.46875.085938-.941406.0625-1.414062l-4.742187-121.417969 7.550781-85.277344c3.699219-13.109375 4.859375-26.800781 3.425781-40.34375zm-19.007812 36.679688c-.144532.492187-.238282 1-.28125 1.511718l-7.671875 86.542969c-.023438.339844-.023438.683594 0 1.023438l4.710937 120.390625c-.082031.582031-.105468 1.167968-.070312 1.753906 2.972656 36.230469-23.53125 68.207031-59.6875 72.003906-36.152344 3.800782-68.726563-21.960937-73.351563-58.019531-.285156-1.980469-1.300781-3.777344-2.847656-5.039063l-34.738281-236.570312c-5.484375-49.203125 29.878906-93.570312 79.066406-99.199219 23.535156-2.515625 47.089844 4.585938 65.308594 19.695313 28.085937 23.222656 39.710937 60.894531 29.601562 95.90625zm0 0"/><path d="m121.316406 100.992188-7.65625-2.871094-3.664062-34.863282c-.503906-4.375-4.417969-7.539062-8.796875-7.121093-2.113281.222656-4.050781 1.273437-5.386719 2.925781-1.335938 1.648438-1.957031 3.761719-1.734375 5.875l3.550781 33.773438-6.976562 2.808593c-28.257813 11.476563-48.289063 37.109375-52.589844 67.304688l-.128906.992187c-2.054688 14.480469-.359375 29.25 4.929687 42.886719l25.734375 66.160156c.960938 2.765625 3.355469 4.78125 6.242188 5.261719 2.886718.480469 5.804687-.652344 7.609375-2.957031 1.804687-2.304688 2.207031-5.40625 1.050781-8.097657l-25.734375-66.15625c-4.292969-11.101562-5.671875-23.113281-4-34.898437l.136719-1c3.5-24.539063 19.792968-45.363281 42.773437-54.65625l9.675781-3.902344 9.367188 3.519531c30.984375 11.601563 49.453125 43.476563 44.109375 76.128907l-12.09375 74.214843c-.710937 4.363282 2.253906 8.476563 6.617187 9.183594 4.359376.710938 8.472657-2.253906 9.183594-6.617187l12.09375-74.207031c6.550782-40.175782-16.171875-79.390626-54.289062-93.6875zm0 0"/><path d="m221.628906 376.382812c-.101562.460938-.160156.929688-.175781 1.402344-10.109375 42.371094 14.316406 85.332032 55.898437 98.316406 41.578126 12.984376 86.109376-8.445312 101.910157-49.039062 1.839843-.960938 3.234375-2.601562 3.886719-4.574219l77.113281-232.609375c7.855469-27.023437 4.691406-56.058594-8.800781-80.757812-13.269532-24.613282-35.921876-42.820313-62.816407-50.480469-56.214843-15.625-114.472656 17.1875-130.253906 73.359375-3.769531 13.09375-5.007813 26.789062-3.640625 40.34375l-7.375 85.289062zm41.503906-115.855468c.070313-.332032.121094-.667969.152344-1.007813l7.480469-86.558593c.050781-.515626.050781-1.03125 0-1.542969-1.273437-11.757813-.246094-23.648438 3.023437-35.007813 13.320313-47.710937 62.746094-75.628906 110.480469-62.402344 22.761719 6.496094 41.9375 21.914063 53.167969 42.753907 11.433594 20.90625 14.144531 45.484375 7.550781 68.382812l-75.359375 227.28125c-1.738281.976563-3.046875 2.570313-3.671875 4.460938-10.824219 34.695312-47.367187 54.398437-82.300781 44.382812-34.9375-10.015625-55.488281-46.085937-46.289062-81.246093.140624-.566407.214843-1.148438.222656-1.734376zm0 0"/><path d="m281.871094 319.007812h.09375c4.378906 0 7.945312-3.519531 8-7.894531l.984375-75.199219c.417969-33.082031 24.140625-61.261718 56.664062-67.3125l9.824219-1.839843 8.855469 5.527343c21.003906 13.144532 33.4375 36.464844 32.640625 61.230469v1.074219c-.421875 11.871094-3.875 23.4375-10.03125 33.597656l-36.800782 60.679688c-2.292968 3.777344-1.089843 8.699218 2.6875 10.992187 3.777344 2.289063 8.691407 1.085938 10.984376-2.6875l36.800781-60.679687c7.558593-12.496094 11.789062-26.722656 12.289062-41.320313l.039063-1.070312c1.003906-30.492188-14.296875-59.214844-40.160156-75.394531l-6.402344-4 9.363281-32.648438c.882813-2.773438.183594-5.8125-1.820313-7.925781-2.003906-2.117188-5-2.972657-7.820312-2.238281-2.820312.734374-5.015625 2.941406-5.738281 5.765624l-9.65625 33.6875-8 1.503907c-40.015625 7.453125-69.203125 42.128906-69.71875 82.832031l-.984375 75.199219c-.03125 2.128906.785156 4.179687 2.265625 5.703125 1.484375 1.523437 3.511719 2.394531 5.640625 2.417968zm0 0"/></svg>