<svg height="476pt" viewBox="-26 0 476 476.45088" width="476pt" xmlns="http://www.w3.org/2000/svg"><path d="m94.53125 187.761719c-3.609375 1.007812-6.035156 4.382812-5.839844 8.121093l1.742188 32.945313 16-.847656-1.398438-26.203125c15.347656-2.621094 31.125.445312 44.375 8.625l-11.097656 23.777344 14.496094 6.757812 13.953125-29.878906c1.582031-3.402344.582031-7.449219-2.398438-9.726563-19.867187-15.21875-45.714843-20.238281-69.832031-13.570312zm0 0"/><path d="m180.730469 30.363281-5-2.824219c-8.085938-4.53125-17.414063-6.34375-26.609375-5.167968l-6.640625.863281c-21.765625 2.964844-37.804688 21.847656-37.207031 43.808594l-15.785157 52.566406c-4.734375 15.785156-8.726562 32-11.855469 48.097656l-1.351562 6.9375-36.445312 108.414063c-12.976563 35.738281-23.140626 72.4375-30.402344 109.761718l-9.0625 46.636719c-.753906 3.90625 1.476562 7.769531 5.230468 9.074219l53.441407 18.535156c2.066406.71875 4.332031.558594 6.277343-.441406 1.945313-.996094 3.398438-2.75 4.019532-4.847656l24-81.285156-8.234375 84.351562c-.210938 2.175781.480469 4.34375 1.914062 6 1.417969 1.664062 3.46875 2.667969 5.65625 2.765625l56.496094 2.839844h.40625c3.828125-.003907 7.113281-2.722657 7.839844-6.476563l9.0625-46.640625c7.238281-37.257812 11.554687-75.023437 12.914062-112.953125l6.832031-114.398437.800782-3.953125c3.519531-18.226563 6.023437-36.632813 7.503906-55.136719l4.152344-51.863281c9.027344-20.125 1.246094-43.8125-17.953125-54.664063zm-36.175781 8.742188 6.632812-.871094c5.761719-.738281 11.613281.402344 16.679688 3.25l5 2.816406c11.390624 6.4375 16.449218 20.175781 11.949218 32.460938-29.679687 8.585937-36.453125 8.226562-63.453125-13.054688.972657-12.636719 10.632813-22.882812 23.191407-24.601562zm34.039062 96.503906c-1.441406 17.925781-3.878906 35.757813-7.304688 53.410156l-.871093 4.480469c-.0625.34375-.105469.691406-.128907 1.039062l-6.871093 115.085938c-1.324219 37.164062-5.550781 74.164062-12.640625 110.664062l-7.742188 39.832032-41.191406-2.070313 7.398438-76c.78125-8.199219-4.789063-15.652343-12.875-17.226562-8.082032-1.570313-16.042969 3.25-18.390626 11.148437l-21.597656 73.246094-38.992187-13.519531 7.742187-39.839844c7.121094-36.5625 17.085938-72.511719 29.808594-107.519531l36.679688-109.097656c.105468-.328126.191406-.671876.265624-1.015626l1.457032-7.457031c3.03125-15.605469 6.894531-31.269531 11.476562-46.558593l12.914063-43.089844c25.023437 18.609375 37.199219 20.136718 64.160156 13.050781zm0 0"/><path d="m413.3125 365.53125c-8.550781-36.980469-19.972656-73.242188-34.160156-108.449219l-40.269532-107.199219-.90625-3.945312c-4.1875-18.117188-9.378906-35.984375-15.550781-53.527344l-17.296875-49.054687c.054688-22.0625-16.699218-40.535157-38.664062-42.625l-5.695313-.542969c-9.226562-.863281-18.484375 1.273438-26.398437 6.09375l-5.703125 3.488281c-18.691407 11.550781-25.671875 35.335938-16.1875 55.152344l6.960937 54.449219c2.089844 16.3125 5.023438 32.71875 8.730469 48.800781l1.597656 6.871094 10.808594 113.855469c2.671875 37.925781 8.304687 75.585937 16.847656 112.632812l10.703125 46.28125c.839844 3.625 4.070313 6.195312 7.792969 6.199219.230469.011719.460937.011719.6875 0l56.367187-4.800781c2.179688-.1875 4.1875-1.257813 5.554688-2.960938 1.371094-1.703125 1.984375-3.894531 1.695312-6.0625l-11.152343-84 26.816406 80.398438c.691406 2.074218 2.199219 3.777343 4.179687 4.710937 1.976563.933594 4.25 1.015625 6.292969.226563l52.796875-20.390626c3.714844-1.433593 5.8125-5.378906 4.921875-9.257812zm-187.367188-309.816406c-4.480468-12.019532.144532-25.53125 11.046876-32.289063l5.707031-3.488281c4.960937-3.027344 10.769531-4.367188 16.558593-3.824219l5.703126.539063c13.238281 1.273437 23.527343 12.078125 24.152343 25.359375-19.742187 21.136719-32.648437 26.054687-63.167969 13.703125zm142.402344 367.808594-24.160156-72.449219c-2.609375-7.824219-10.738281-12.382813-18.777344-10.527344-8.035156 1.851563-13.34375 9.511719-12.265625 17.6875l10.058594 75.710937-41.105469 3.503907-9.121094-39.527344c-8.371093-36.300781-13.890624-73.199219-16.511718-110.359375l-10.839844-114.574219c-.03125-.355469-.085938-.703125-.167969-1.050781l-1.710937-7.390625c-3.585938-15.535156-6.398438-31.414063-8.441406-47.199219l-5.527344-43.199218c28.761718 9.183593 46.226562 2.679687 64.199218-14.289063l13.363282 37.894531c5.972656 16.960938 10.996094 34.242188 15.039062 51.761719l1.023438 4.4375c.082031.347656.183594.683594.304687 1.019531l40.535157 107.917969c13.910156 34.488281 25.105468 70.011719 33.488281 106.242187l9.128906 39.527344zm0 0"/><path d="m321.082031 163.5625c-24.339843-5.820312-50 .101562-69.328125 16-2.890625 2.390625-3.730468 6.46875-2.023437 9.808594l14.992187 29.382812 14.253906-7.261718-11.925781-23.378907c12.957031-8.628906 28.617188-12.246093 44.046875-10.175781l-.472656 26.242188 16 .277343.59375-32.972656c.066406-3.753906-2.488281-7.046875-6.136719-7.921875zm0 0"/><path d="m120.957031 141.855469 3.140625-15.691407 40 8-3.140625 15.691407zm0 0"/><path d="m249.214844 110.109375 48.007812-7.984375 2.625 15.785156-48.003906 7.984375zm0 0"/></svg>