<svg height="480pt" viewBox="0 -3 480 480" width="480pt" xmlns="http://www.w3.org/2000/svg"><path d="m240 226.160156c22.089844 0 40-17.910156 40-40s-17.910156-40-40-40-40 17.910156-40 40c.027344 22.082032 17.917969 39.972656 40 40zm0-64c13.253906 0 24 10.746094 24 24s-10.746094 24-24 24-24-10.746094-24-24 10.746094-24 24-24zm0 0"/><path d="m0 0v408.257812l240 66.199219 240-66.199219v-408.257812l-240 57.929688zm464 396.0625-224 61.800781-224-61.800781v-375.742188l224 54.070313 224-54.070313zm0 0"/><path d="m56 138.160156c-13.253906 0-24 10.746094-24 24s10.746094 24 24 24 24-10.746094 24-24-10.746094-24-24-24zm0 32c-4.417969 0-8-3.582031-8-8 0-4.417968 3.582031-8 8-8s8 3.582032 8 8c0 4.417969-3.582031 8-8 8zm0 0"/><path d="m82.347656 191.820312 11.3125-11.3125 15.996094 15.996094-11.3125 11.3125zm0 0"/><path d="m114.34375 223.820312 11.316406-11.3125 15.996094 15.996094-11.3125 11.3125zm0 0"/><path d="m150.398438 266.007812-1.984376.992188 7.152344 14.320312 1.984375-.992187c5.550781-2.769531 9.429688-8.042969 10.425781-14.167969.992188-6.125-1.019531-12.351562-5.410156-16.734375l-4.917968-4.921875-11.3125 11.3125 4.921874 4.917969c.746094.75 1.085938 1.8125.917969 2.855469-.171875 1.042968-.832031 1.945312-1.777343 2.417968zm0 0"/><path d="m114.34375 300.503906 16-15.996094 11.3125 11.3125-15.996094 15.996094zm0 0"/><path d="m106.320312 333.832031c-.328124-1.34375.070313-2.761719 1.054688-3.734375l2.28125-2.28125-11.3125-11.3125-2.28125 2.28125c-4.894531 4.898438-6.90625 11.984375-5.3125 18.726563 1.589844 6.742187 6.558594 12.183593 13.128906 14.375l5.601563 1.867187 5.054687-15.203125-5.597656-1.863281c-1.316406-.421875-2.3125-1.507812-2.617188-2.855469zm0 0"/><path d="m122.34375 340.5 15.996094-16 11.3125 11.316406-15.996094 15.996094zm0 0"/><path d="m154.34375 308.5 15.996094-15.996094 11.3125 11.3125-15.996094 15.996094zm0 0"/><path d="m322.347656 263.820312 11.3125-11.316406 16 16-11.316406 11.3125zm0 0"/><path d="m354.347656 295.820312 11.3125-11.316406 15.996094 16-11.3125 11.3125zm0 0"/><path d="m412.34375 322.503906c-2.402344 2.390625-6.285156 2.390625-8.6875 0l-6-6-11.3125 11.3125 6 6c8.648438 8.640625 22.664062 8.640625 31.3125 0l6-6-11.3125-11.3125zm0 0"/><path d="m424 290.160156h16v16h-16zm0 0"/><path d="m410.339844 263.816406 11.316406-11.3125 15.996094 15.996094-11.3125 11.316406zm0 0"/><path d="m378.34375 231.816406 11.3125-11.3125 15.996094 15.996094-11.3125 11.316406zm0 0"/><path d="m362.34375 215.816406 11.3125-11.3125-5-5c-2.945312-2.953125-2.945312-7.734375 0-10.6875l5-5-11.3125-11.3125-5 5c-9.183594 9.207032-9.183594 24.105469 0 33.3125zm0 0"/><path d="m381.65625 167.816406 18.34375-18.34375 18.34375 18.34375 11.3125-11.3125-18.34375-18.34375 18.34375-18.34375-11.3125-11.3125-18.34375 18.34375-18.34375-18.34375-11.3125 11.3125 18.34375 18.34375-18.34375 18.34375zm0 0"/><path d="m194.398438 118.960938-2.535157 1.695312c-18.878906 12.585938-31.71875 32.417969-35.480469 54.792969-3.761718 22.378906 1.890626 45.316406 15.617188 63.382812l68 115.039063 68-115.039063c13.726562-18.066406 19.378906-41.003906 15.617188-63.382812-3.761719-22.375-16.601563-42.207031-35.480469-54.792969l-2.535157-1.695312c-27.601562-18.453126-63.601562-18.453126-91.203124 0zm82.402343 13.304687 2.550781 1.703125c15.269532 10.171875 25.632813 26.226562 28.621094 44.328125 2.988282 18.105469-1.667968 36.636719-12.859375 51.175781l-55.113281 92.976563-54.503906-92.167969-.542969-.800781c-11.195313-14.542969-15.855469-33.074219-12.867187-51.183594 2.988281-18.105469 13.359374-34.15625 28.632812-44.328125l2.539062-1.695312c22.234376-14.878907 51.242188-14.878907 73.476563 0zm0 0"/></svg>