<svg height="480pt" viewBox="-120 0 480 480" width="480pt" xmlns="http://www.w3.org/2000/svg"><path d="m184 8c0-4.417969-3.582031-8-8-8h-112c-4.417969 0-8 3.582031-8 8v128h-32c-13.253906 0-24 10.746094-24 24v248c0 13.253906 10.746094 24 24 24h20.449219c-2.878907 4.84375-4.417969 10.367188-4.449219 16 0 17.671875 14.328125 32 32 32s32-14.328125 32-32c-.03125-5.632812-1.570312-11.15625-4.449219-16h32.898438c-2.878907 4.84375-4.417969 10.367188-4.449219 16 0 17.671875 14.328125 32 32 32s32-14.328125 32-32c-.03125-5.632812-1.570312-11.15625-4.449219-16h28.449219c13.253906 0 24-10.746094 24-24v-248c0-13.253906-10.746094-24-24-24h-32zm-112 8h96v16h-96zm16 432c0 8.835938-7.164062 16-16 16s-16-7.164062-16-16 7.164062-16 16-16 16 7.164062 16 16zm88 0c0 8.835938-7.164062 16-16 16s-16-7.164062-16-16 7.164062-16 16-16 16 7.164062 16 16zm-128-32v-32h144v32zm176-256v248c0 4.417969-3.582031 8-8 8h-8v-40c0-4.417969-3.582031-8-8-8h-160c-4.417969 0-8 3.582031-8 8v40h-8c-4.417969 0-8-3.582031-8-8v-248c0-4.417969 3.582031-8 8-8h8v80c0 3.535156 2.320312 6.648438 5.703125 7.664062l48.441406 14.527344c3.253907.984375 6.550781 1.769532 9.855469 2.457032v23.351562c0 4.417969 3.582031 8 8 8h32c4.417969 0 8-3.582031 8-8v-23.351562c3.304688-.6875 6.601562-1.472657 9.855469-2.457032l48.441406-14.527344c3.382813-1.015624 5.703125-4.128906 5.703125-7.664062v-80h8c4.417969 0 8 3.582031 8 8zm-96 82.839844c-5.324219.425781-10.675781.425781-16 0v-10.839844h16zm-8 16.359375c2.664062 0 5.335938-.101563 8-.289063v13.089844h-16v-13.113281c2.664062.183593 5.335938.3125 8 .3125zm72-33.128907-42.734375 12.800782c-1.746094.527344-3.503906.953125-5.265625 1.375v-16.246094c0-4.417969-3.582031-8-8-8h-32c-4.417969 0-8 3.582031-8 8v16.238281c-1.761719-.421875-3.519531-.847656-5.265625-1.375l-42.734375-12.816406v-74.046875h144zm-120-90.070312v-88h96v88zm0 0"/></svg>