<svg height="493pt" viewBox="0 -7 493.224 493" width="493pt" xmlns="http://www.w3.org/2000/svg"><path d="m446.398438 299.191406c-.015626-20.121094-16.324219-36.429687-36.445313-36.449218h-2.335937l-160.792969-262.628907-198.257813 285.488281-19.03125-19.035156-29.535156 39.378906 12.800781 9.597657 18.464844-24.621094 63.855469 63.820313 87.496094-111.359376 119.78125 142.28125v8.632813c.058593 18.355469 13.78125 33.792969 32 36v48.445313h16v-48.445313c13.851562-1.710937 25.496093-11.214844 29.945312-24.441406 5.207031 4.132812 11.457031 6.746093 18.054688 7.550781v48.449219h16v-48.449219c18.289062-2.082031 32.074218-17.59375 32-36v-20.671875l33.175781 54.1875 13.648437-8.355469-46.824218-76.476562zm-125.046876-146.710937-2.953124 2.953125-26.34375-26.34375c-3.121094-3.125-8.1875-3.125-11.3125 0l-26.34375 26.34375-26.34375-26.34375c-3.121094-3.125-8.1875-3.125-11.3125 0l-26.34375 26.34375-18.863282-18.867188 74.441406-107.199218zm-139.199218 65.597656-88.472656 112.664063-33.601563-33.597657 102.1875-147.199219 22.476563 22.480469c3.125 3.121094 8.191406 3.121094 11.3125 0l26.34375-26.371093 26.34375 26.34375c3.125 3.125 8.191406 3.125 11.3125 0l26.34375-26.34375 26.34375 26.34375c3.125 3.125 8.191406 3.125 11.3125 0l5.890624-5.886719 60.359376 98.632812c-10.3125 3.820313-18.34375 12.101563-21.847657 22.527344-6.375-5.144531-14.3125-7.964844-22.503906-8h-7.105469c-20.105468.023437-36.402344 16.304687-36.449218 36.40625v44.746094zm184.246094 176.21875c-.007813 11.289063-9.15625 20.4375-20.445313 20.445313h-7.105469c-11.289062-.007813-20.4375-9.15625-20.449218-20.445313v-78.21875c.015624-11.285156 9.160156-20.433594 20.449218-20.445313h7.105469c11.285156.011719 20.433594 9.160157 20.445313 20.445313zm64-16.890625c0 11.292969-9.152344 20.449219-20.445313 20.449219h-7.105469c-11.289062-.011719-20.433594-9.160157-20.449218-20.449219v-78.214844c.011718-11.289062 9.160156-20.4375 20.449218-20.449218h7.105469c11.289063.011718 20.4375 9.160156 20.445313 20.449218zm0 0"/></svg>