<svg height="480pt" viewBox="-31 0 479 480" width="480pt" xmlns="http://www.w3.org/2000/svg"><path d="m8.5 448h160v24c0 4.417969 3.582031 8 8 8h232c4.417969 0 8-3.582031 8-8v-128c0-2.675781-1.335938-5.171875-3.558594-6.65625l-14.042968-9.34375 14.015624-9.34375c2.234376-1.480469 3.582032-3.976562 3.585938-6.65625v-304c0-4.417969-3.582031-8-8-8h-232c-4.417969 0-8 3.582031-8 8v24h-160c-4.417969 0-8 3.582031-8 8v400c0 4.417969 3.582031 8 8 8zm176-432h216v291.71875l-20.441406 13.601562c-2.222656 1.484376-3.558594 3.980469-3.558594 6.65625 0 2.675782 1.335938 5.171876 3.558594 6.65625l20.441406 13.648438v115.71875h-216v-16h96c4.417969 0 8-3.582031 8-8v-104h8v-16h-8v-192h96v-16h-96v-24h80v-16h-80v-32c0-4.417969-3.582031-8-8-8h-96zm-168 32h256v384h-256zm0 0"/><path d="m144.5 288c61.855469 0 112-50.144531 112-112s-50.144531-112-112-112c-1.144531 0-2.335938.070312-3.542969.175781-61.210937 1.785157-109.625 52.429688-108.65625 113.660157.96875 61.230468 50.960938 110.316406 112.199219 110.164062zm95.59375-120h-37.753906c-.371094-13.445312-1.9375-26.832031-4.679688-40h29.847656c7.117188 12.230469 11.417969 25.898438 12.585938 40zm-103.59375 72v30.398438c-10.105469-3.949219-18.078125-15.199219-23.742188-30.398438zm-28.558594-16c-3.074218-13.128906-4.839844-26.527344-5.28125-40h33.839844v40zm44.558594 46.34375v-30.34375h23.816406c-.550781 1.472656-1.089844 2.976562-1.671875 4.351562-3.804687 11.167969-11.722656 20.460938-22.144531 25.992188zm0-46.34375v-40h33.832031c-.40625 13.472656-2.144531 26.871094-5.183593 40zm49.839844-40h37.753906c-1.167969 14.101562-5.46875 27.769531-12.585938 40h-29.847656c2.742188-13.167969 4.308594-26.554688 4.679688-40zm-16-16h-33.839844v-40h28.558594c3.074218 13.128906 4.839844 26.527344 5.28125 40zm-33.839844-56v-30.359375c10.105469 3.953125 18.078125 15.199219 23.742188 30.398437zm-16-30.359375v30.359375h-23.742188c5.664063-15.144531 13.636719-26.398438 23.742188-30.359375zm0 46.359375v40h-33.839844c.441406-13.472656 2.207032-26.871094 5.28125-40zm-49.832031 40h-37.761719c1.167969-14.101562 5.46875-27.769531 12.585938-40h29.910156c-2.785156 13.164062-4.367188 26.550781-4.734375 40zm0 16c.371093 13.445312 1.9375 26.832031 4.679687 40h-29.855468c-7.117188-12.230469-11.417969-25.898438-12.585938-40zm-13.511719 56h22.464844c2.644531 8.484375 6.335937 16.605469 10.992187 24.175781-12.769531-5.546875-24.1875-13.792969-33.464843-24.175781zm109.246094 24.175781c4.652344-7.570312 8.34375-15.691406 10.984375-24.175781h22.464843c-9.273437 10.378906-20.6875 18.628906-33.457031 24.175781zm33.449218-152.175781h-22.464843c-2.644531-8.484375-6.335938-16.605469-10.992188-24.175781 12.769531 5.546875 24.183594 13.796875 33.457031 24.175781zm-109.105468-24.238281c-2.730469 4.332031-5.101563 8.878906-7.09375 13.597656-1.433594 3.351563-2.710938 6.945313-3.921875 10.648437h-22.582031c9.308593-10.425781 20.773437-18.699218 33.597656-24.246093zm0 0"/><path d="m32.5 312h224v16h-224zm0 0"/><path d="m32.5 344h224v16h-224zm0 0"/><path d="m312.5 320h16v16h-16zm0 0"/><path d="m344.5 320h16v16h-16zm0 0"/><path d="m368.5 352h16v96h-16zm0 0"/><path d="m336.5 352h16v96h-16zm0 0"/><path d="m304.5 352h16v64h-16zm0 0"/><path d="m370.84375 170.34375-13.085938 13.089844-43.945312-7.320313-2.625 15.773438 32.664062 5.449219-32.953124 32.929687-10.847657-5.425781-7.152343 14.320312 13.601562 6.800782 6.800781 13.597656 14.320313-7.152344-5.386719-10.804688 32.609375-32.609374 5.734375 40.167968 15.84375-2.273437-7.433594-52 13.167969-13.167969c3.03125-3.136719 2.988281-8.128906-.097656-11.214844-3.085938-3.085937-8.074219-3.128906-11.214844-.097656zm0 0"/></svg>