<svg height="480pt" viewBox="0 0 480 480.00018" width="480pt" xmlns="http://www.w3.org/2000/svg"><path d="m471.550781 175.328125c-8.851562-8.488281-22.824219-8.488281-31.679687 0l-.199219.671875-5.421875-4.96875 5.421875-5.429688c6.113281-6.125 6.113281-16.039062 0-22.160156l-5.433594-5.433594c-6.203125-5.917968-15.960937-5.917968-22.167969 0l-4.957031 5.433594-5.433593-4.96875 5.417968-5.425781c6.121094-6.121094 6.121094-16.050781 0-22.175781l-5.441406-5.429688c-6.128906-6.105468-16.039062-6.105468-22.167969 0l-4.960937 5.421875-5.421875-4.96875 5.421875-5.414062c6.125-6.125 6.125-16.054688 0-22.175781l-5.429688-5.441407c-6.128906-6.09375-16.03125-6.09375-22.160156 0l-4.960938 5.433594-5.433593-4.96875 5.425781-5.425781c6.121094-6.117188 6.121094-16.046875 0-22.167969l-5.425781-5.421875c-6.203125-5.917969-15.964844-5.917969-22.167969 0l-4.96875 5.421875-5.40625-4.933594.664062-.664062c8.738282-8.746094 8.738282-22.917969 0-31.664063l-.945312-.945312c-4.789062-4.828125-11.316406-7.5390628-18.117188-7.527344h-1.664062c-6.804688-.0195312-13.335938 2.683594-18.136719 7.503906l-258.296875 258.304688c-4.820312 4.800781-7.519531 11.324218-7.503906 18.128906v1.664062c.015625 6.796876 2.714844 13.316407 7.511719 18.132813l.9375.9375c8.851562 8.488281 22.824219 8.488281 31.679687 0l.199219-.671875 5.425781 4.96875-5.425781 5.429688c-6.113281 6.125-6.113281 16.039062 0 22.160156l5.433594 5.433594c6.203125 5.917968 15.960937 5.917968 22.167969 0l4.957031-5.433594 5.433593 4.96875-5.417968 5.425781c-6.121094 6.121094-6.121094 16.050781 0 22.175781l5.441406 5.429688c6.128906 6.105468 16.039062 6.105468 22.167969 0l4.960937-5.421875 5.421875 4.96875-5.421875 5.414062c-6.125 6.125-6.125 16.054688 0 22.175781l5.429688 5.441407c6.128906 6.09375 16.03125 6.09375 22.160156 0l4.960938-5.433594 5.433593 4.96875-5.425781 5.425781c-6.121094 6.121094-6.121094 16.046875 0 22.167969l5.425781 5.421875c6.203125 5.921875 15.964844 5.921875 22.167969 0l4.96875-5.421875 5.40625 4.933594-.664062.664062c-8.738282 8.746094-8.738282 22.917969 0 31.664063l.945312.953125c4.792969 4.824219 11.316406 7.53125 18.117188 7.519531h1.664062c6.804688.019531 13.335938-2.683594 18.136719-7.503906l258.296875-258.304688c4.820312-4.800781 7.519531-11.324218 7.503906-18.128906v-1.664062c-.015625-6.796876-2.714844-13.316407-7.511719-18.132813zm-7.550781 20.734375c.003906 2.558594-1.011719 5.011719-2.824219 6.816406l-258.296875 258.289063c-1.808594 1.808593-4.261718 2.824219-6.824218 2.832031h-1.65625c-2.554688.003906-5.007813-1.011719-6.8125-2.824219l-.929688-.9375c-1.210938-1.191406-1.886719-2.820312-1.878906-4.519531 0-1.703125.679687-3.335938 1.886718-4.535156l.664063-.664063c6.105469-6.128906 6.105469-16.039062 0-22.167969l-5.425781-5.421874c-6.121094-6.125-16.050782-6.125-22.175782 0l-4.964843 5.421874-5.417969-4.960937 5.417969-5.429687c6.117187-6.121094 6.117187-16.039063 0-22.160157l-5.425781-5.433593c-6.203126-5.917969-15.964844-5.917969-22.167969 0l-4.976563 5.433593-5.421875-4.96875 5.429688-5.433593c6.121093-6.121094 6.121093-16.042969 0-22.167969l-5.421875-5.421875c-6.195313-5.949219-15.976563-5.949219-22.167969 0l-4.960937 5.421875-5.433594-4.964844 5.425781-5.425781c6.117187-6.121094 6.117187-16.046875 0-22.167969l-5.441406-5.441406c-6.128907-6.09375-16.035157-6.09375-22.167969 0l-4.960938 5.433593-5.421874-4.96875 5.414062-5.421874c2.945312-2.941407 4.597656-6.925782 4.597656-11.085938 0-4.15625-1.652344-8.144531-4.597656-11.082031l-5.429688-5.441407c-6.128906-6.109374-16.046874-6.109374-22.175781 0l-.65625.695313c-2.527343 2.425781-6.515625 2.425781-9.039062 0l-.9375-.941406c-1.804688-1.8125-2.820313-4.261719-2.824219-6.816407v-1.664062c-.003906-2.558594 1.011719-5.011719 2.824219-6.816406l258.296875-258.289063c1.8125-1.808593 4.265625-2.824219 6.824218-2.832031h1.65625c2.554688-.003906 5.007813 1.011719 6.816407 2.824219l.925781.9375c1.210938 1.191406 1.886719 2.820312 1.878906 4.519531 0 1.703125-.679687 3.335938-1.886718 4.535156l-.664063.664063c-6.105469 6.128906-6.105469 16.039062 0 22.167969l5.425781 5.421874c6.203125 5.921876 15.96875 5.921876 22.175782 0l4.964843-5.421874 5.417969 4.960937-5.417969 5.429687c-6.117187 6.121094-6.117187 16.042969 0 22.160157l5.425781 5.433593c6.203126 5.917969 15.964844 5.917969 22.167969 0l4.976563-5.433593 5.421875 4.96875-5.429688 5.433593c-6.121093 6.121094-6.121093 16.042969 0 22.167969l5.421875 5.421875c6.195313 5.949219 15.976563 5.949219 22.167969 0l4.960937-5.421875 5.433594 4.964844-5.386718 5.464844c-6.117188 6.125-6.117188 16.046875 0 22.167969l5.441406 5.441406c6.132812 6.097656 16.035156 6.097656 22.167968 0l4.960938-5.433594 5.421875 4.96875-5.414063 5.425781c-2.941406 2.9375-4.597656 6.925781-4.597656 11.082031 0 4.160157 1.65625 8.144532 4.597656 11.085938l5.429688 5.4375c6.132812 6.113281 16.050781 6.113281 22.179688 0l.664062-.664062c2.523438-2.421876 6.511719-2.421876 9.039062 0l.933594.945312c1.773438 1.800781 2.769532 4.21875 2.777344 6.742188zm0 0"/><path d="m257.664062 320 9.855469-62.222656 62.214844-9.847656-56.132813-28.640626 9.847657-62.199218-44.519531 44.511718-56.128907-28.578124 28.597657 56.121093-44.535157 44.542969 62.207031-9.855469zm-38.246093-110.398438 22.597656 11.519532 17.945313-17.921875-3.960938 25.074219 22.601562 11.511718-25.058593 4-3.941407 25.015625-11.519531-22.609375-25.050781 4 17.9375-17.933594zm0 0"/><path d="m210.339844 410.34375 200-199.996094 11.3125 11.3125-200 200zm0 0"/><path d="m58.339844 258.34375 200-199.996094 11.3125 11.3125-200 200zm0 0"/></svg>