<svg height="485pt" viewBox="-29 0 485 485.656" width="485pt" xmlns="http://www.w3.org/2000/svg"><path d="m197.984375 112h32c13.253906 0 24-10.746094 24-24s-10.746094-24-24-24h-32c-13.253906 0-24 10.746094-24 24s10.746094 24 24 24zm0-32h32c4.417969 0 8 3.582031 8 8s-3.582031 8-8 8h-32c-4.417969 0-8-3.582031-8-8s3.582031-8 8-8zm0 0"/><path d="m233.296875 128h-147.3125v112h256v-112zm-131.3125 16h44.6875l-44.6875 44.6875zm0 80v-12.6875l67.3125-67.3125h25.375l-80 80zm35.3125 0 80-80h25.375l-80 80zm188.6875 0h-44.6875l44.6875-44.6875zm0-80v12.6875l-67.3125 67.3125h-73.375l80-80zm0 0"/><path d="m165.984375 264h96v16h-96zm0 0"/><path d="m141.984375 312h-32c-13.253906 0-24 10.746094-24 24s10.746094 24 24 24h32c13.253906 0 24-10.746094 24-24s-10.746094-24-24-24zm0 32h-32c-4.417969 0-8-3.582031-8-8s3.582031-8 8-8h32c4.417969 0 8 3.582031 8 8s-3.582031 8-8 8zm0 0"/><path d="m317.984375 312h-32c-13.253906 0-24 10.746094-24 24s10.746094 24 24 24h32c13.253906 0 24-10.746094 24-24s-10.746094-24-24-24zm0 32h-32c-4.417969 0-8-3.582031-8-8s3.582031-8 8-8h32c4.417969 0 8 3.582031 8 8s-3.582031 8-8 8zm0 0"/><path d="m18.671875 456-18.34375 18.34375 11.3125 11.3125 29.65625-29.65625h345.375l29.65625 29.65625 11.3125-11.3125-82.34375-82.34375h4.6875c13.253906 0 24-10.746094 24-24v-312c0-13.253906-10.746094-24-24-24h-32v-16h40v-16h-288v16h40v16h-32c-13.253906 0-24 10.746094-24 24v312c0 13.253906 10.746094 24 24 24h4.6875zm352-16h-313.375l16-16h281.375zm-244.6875-424h176v16h-176zm-56 352v-312c0-4.417969 3.582031-8 8-8h272c4.417969 0 8 3.582031 8 8v312c0 4.417969-3.582031 8-8 8h-272c-4.417969 0-8-3.582031-8-8zm35.3125 24h217.375l16 16h-249.375zm0 0"/></svg>