<svg height="480pt" viewBox="0 -4 480 480" width="480pt" xmlns="http://www.w3.org/2000/svg"><path d="m265.238281 33.113281c-5.71875-.71875-11.472656-1.089843-17.238281-1.113281v-24c0-4.417969-3.582031-8-8-8s-8 3.582031-8 8v24.167969c-128.640625 3.535156-232 91.785156-232 199.832031-.00390625 3.101562 1.785156 5.925781 4.59375 7.246094 2.804688 1.320312 6.121094.902344 8.511719-1.078125l11.277343-9.367188c13.175782-10 31.394532-10 44.570313 0l11.277344 9.335938c.390625.265625.804687.496093 1.234375.695312.308594.207031.636718.394531.976562.550781 1.867188.734376 3.941406.734376 5.804688 0 .324218-.160156.636718-.335937.9375-.535156.4375-.199218.859375-.4375 1.257812-.710937l11.269532-9.335938c13.175781-10 31.402343-10 44.578124 0l11.3125 9.367188c.398438.269531.816407.507812 1.253907.710937.304687.199219.617187.378906.945312.535156 1.863281.734376 3.933594.734376 5.800781 0 .335938-.15625.664063-.339843.972657-.550781.433593-.195312.84375-.429687 1.234375-.695312l11.28125-9.335938c13.171875-10 31.394531-10 44.566406 0l8.34375 6.9375v116.230469h-8c-4.417969 0-8 3.582031-8 8v56c0 4.417969-3.582031 8-8 8s-8-3.582031-8-8v-8c0-13.253906-10.746094-24-24-24s-24 10.746094-24 24v8c0 30.929688 25.070312 56 56 56s56-25.070312 56-56v-56c0-4.417969-3.582031-8-8-8h-8v-116.230469l8.382812-6.9375c13.175782-10 31.394532-10 44.570313 0l11.277344 9.335938c.390625.265625.804687.5 1.234375.695312.308594.210938.636718.394531.976562.550781 1.867188.734376 3.941406.734376 5.804688 0 .324218-.15625.636718-.335937.9375-.535156.4375-.199218.859375-.4375 1.257812-.710937l11.269532-9.367188c13.175781-10 31.402343-10 44.578124 0l6.085938 5.039063c.804688 3.574218 3.960938 6.125 7.625 6.160156.410156-.046875.820312-.128906 1.214844-.246094 2.316406.46875 4.71875-.117187 6.554687-1.601562l11.277344-9.335938c13.175781-10 31.394531-10 44.570313 0l11.277343 9.335938c2.386719 1.976562 5.699219 2.398437 8.503907 1.082031 2.804687-1.316406 4.597656-4.136719 4.601562-7.234375 0-103.199219-94.246094-188.34375-214.761719-198.886719zm-17.238281 382.886719c0 22.089844-17.910156 40-40 40s-40-17.910156-40-40v-8c0-4.417969 3.582031-8 8-8s8 3.582031 8 8v8c0 13.253906 10.746094 24 24 24s24-10.746094 24-24v-48h16zm-230.976562-201.671875c7.671874-65.785156 57.710937-121.535156 127.359374-148.65625-42.179687 32.960937-66.894531 83.460937-67.046874 136.992187v12.582032c-17.902344-12.976563-42.019532-13.34375-60.3125-.917969zm76.3125.929687v-12.59375c0-76.464843 55.878906-142.039062 126.015624-152.992187-36.566406 41.601563-60.558593 103.273437-64.167968 165.9375-18.328125-13.605469-43.363282-13.75-61.847656-.351563zm108-10.066406c-10.785157-.019531-21.304688 3.359375-30.0625 9.65625 3.734374-59.023437 26.398437-116.800781 60.726562-155.320312v155.738281c-8.867188-6.578125-19.625-10.109375-30.664062-10.074219zm46.664062 10.074219v-155.738281c34.335938 38.527344 56.992188 96.296875 60.726562 155.320312-18.253906-12.835937-42.648437-12.667968-60.726562.417969zm76.800781.34375c-3.640625-63.136719-28-125.289063-65.015625-166.867187 2.214844.160156 4.40625.371093 6.605469.578124 74.007813 10.421876 117.609375 82.976563 117.609375 153.34375v10.785157c-18.28125-11.585938-41.808594-10.726563-59.199219 2.160156zm76 .894531-.800781.695313v-14.535157c.996094-50.738281-19.726562-99.484374-56.953125-133.976562 65.761719 28.113281 112.539063 82.214844 119.929687 145.601562-18.96875-12.925781-44.136718-12.027343-62.136718 2.214844zm0 0"/></svg>