<svg height="490pt" viewBox="0 -105 490.27609 490" width="490pt" xmlns="http://www.w3.org/2000/svg"><path d="m412.378906 120.136719c-12.582031.066406-25.003906 2.792969-36.457031 8l-10.738281-18.398438 6.5625-8.753906c1.929687-2.554687 2.144531-6.019531.550781-8.796875l-6.945313-12.144531c.386719 0 .738282.109375 1.121094.109375h44v-56.015625h-44c-10.300781.039062-19.746094 5.746093-24.566406 14.847656l-1.089844-1.902344c-5.972656-21.832031-25.820312-36.964843-48.457031-36.945312h-9.886719c-4.417968 0-8 3.582031-8 8s3.582032 8 8 8h9.886719c15.722656-.019531 29.429687 10.683593 33.226563 25.9375.175781.710937.445312 1.394531.800781 2.03125l29.390625 51.441406-25.632813 34.191406c-16.996093 22.769531-26.933593 50.03125-28.566406 78.398438h-76.648437c-5.875-31.21875 3.144531-63.394531 24.390624-87.015625l4.480469-5.214844c7.964844-9.300781 9.785157-22.386719 4.667969-33.511719-5.117188-11.121093-16.238281-18.25-28.484375-18.257812h-158.710937c-12.871094.003906-24.488282 7.714843-29.484376 19.574219-5 11.859374-2.40625 25.558593 6.582032 34.769531-19.082032 12.457031-59.121094 45.753906-45.65625 99.59375h.140625c.523437 2.171875 1.949219 4.019531 3.921875 5.070312l-.441406.992188h37.9375c7.472656 32.753906 36.601562 55.984375 70.195312 55.984375s62.722656-23.230469 70.195312-55.984375h124.679688c4.417969 0 8-3.582031 8-8 .0625-27.683594 9.039062-54.613281 25.601562-76.796875l11.816407-15.753906 7.136719 12.230468c-8.652344 5.894532-16.195313 13.261719-22.289063 21.769532l-.480469.679687c-10.863281 15.148437-16.6875 33.328125-16.65625 51.96875v21.902344c.003906 3.140625 1.839844 5.984375 4.695313 7.28125 1.039062.476562 2.164062.722656 3.304687.71875 1.9375.003906 3.8125-.699219 5.273438-1.976563l6.886718-6.023437c8.910157 25.101562 30.960938 43.226562 57.308594 47.113281 26.351563 3.890625 52.691406-7.097656 68.472656-28.554688 15.78125-21.453124 18.421876-49.875 6.859376-73.871093l7.917968-.6875c2.738282-.347657 5.105469-2.074219 6.273438-4.574219 1.214844-2.566406 1.058594-5.574219-.414063-8-16.21875-26.871094-45.285156-43.335938-76.671875-43.425781zm-45.90625-80h28v24h-28c-6.625 0-12-5.371094-12-12 0-6.625 5.375-12 12-12zm-306.503906 44.6875c2.992188-3.003907 7.0625-4.691407 11.304688-4.6875h158.710937c6.003906-.003907 11.457031 3.484375 13.96875 8.9375 2.511719 5.449219 1.621094 11.863281-2.28125 16.425781l-4.46875 5.214844c-.402344.464844-.800781.953125-1.152344 1.421875h-171.386719l-4.695312-4.6875c-6.246094-6.246094-6.246094-16.375 0-22.625zm54.503906 179.3125c-24.734375-.046875-46.511718-16.300781-53.597656-40h16.980469c6.335937 14.574219 20.714843 24.003906 36.605469 24.003906 15.890624 0 30.269531-9.429687 36.605468-24.003906h17.09375c-7.078125 23.742187-28.914062 40.011719-53.6875 40zm-17.871094-40h35.703126c-4.539063 5.089843-11.03125 8-17.851563 8s-13.3125-2.910157-17.851563-8zm-65.992187-16 1.496094-3.496094c13.65625-31.847656 44.972656-52.496094 79.625-52.503906h41.773437c8.738282.027343 17.113282 3.5 23.3125 9.65625 6.203125 6.171875 9.679688 14.566406 9.65625 23.3125v23.03125zm157.519531-57.65625c-9.164062-9.210938-21.628906-14.375-34.625-14.34375h-41.773437c-41.058594-.007813-78.167969 24.460937-94.328125 62.203125l-1.113282 2.589844c-2.71875-44.046876 38.449219-68.28125 46.984376-72.792969h161.28125c-14.945313 23.8125-20.664063 52.265625-16.074219 80h-6.007813v-23.03125c.039063-12.992188-5.125-25.460938-14.34375-34.625zm224.25-14.34375c21.234375.074219 41.40625 9.292969 55.359375 25.304687l-68.722656 6.25-15-25.714844c8.972656-3.816406 18.613281-5.800781 28.363281-5.839843zm-18.402344 54.65625 12.496094 21.34375c1.28125 2.742187 4.003906 4.527343 7.03125 4.609375 3.023438.082031 5.839844-1.550782 7.269532-4.21875 1.429687-2.667969 1.230468-5.914063-.515626-8.390625l-11.542968-19.824219c.589844 0 1.160156-.175781 1.757812-.175781 11.589844-.066407 21.589844 8.105469 23.832032 19.476562 2.242187 11.367188-3.910157 22.726563-14.65625 27.058594-10.75 4.335937-23.058594.421875-29.332032-9.320313-6.273437-9.742187-4.742187-22.566406 3.652344-30.558593zm-55.503906 19.441406c-.027344-15.304687 4.753906-30.234375 13.671875-42.671875l.488281-.679688c4.789063-6.648437 10.660157-12.445312 17.367188-17.144531l14.402344 24.632813-45.929688 40.167968zm128-2.097656c.003906 28.515625-21.417968 52.480469-49.753906 55.660156s-54.535156-15.4375-60.855469-43.242187l14.648438-12.800782c0 .136719-.039063.265625-.039063.398438-.035156 18.078125 12.058594 33.933594 29.503906 38.679687 17.445313 4.742188 35.902344-2.804687 45.027344-18.410156s6.648438-35.390625-6.042968-48.269531l18.785156-1.710938c5.679687 8.863282 8.710937 19.167969 8.726562 29.695313zm0 0"/></svg>